<?xml version="1.0" encoding="utf-8" ?>
<svg baseProfile="full" height="330.0" version="1.1" viewBox="-162.5 -50.50000000000002 330.0 270.99999999999983" width="270.99999999999983" xmlns="http://www.w3.org/2000/svg" xmlns:ev="http://www.w3.org/2001/xml-events" xmlns:xlink="http://www.w3.org/1999/xlink"><defs /><polygon fill="white" fill-opacity="1" fill-rule="evenodd" points="50.00000000000002,-162.0 50.00000000000002,-112.0 2.1316282072803006e-14,-112.00000000000001 2.7439516068539772e-14,-162.0" transform="rotate(-90)" /><polyline class="hole" fill-opacity="0" points="1.9839278146187122e-14,-162.0 50.00000000000002,-162.0 50.00000000000002,-112.0 2.1316282072803006e-14,-112.00000000000001 2.7439516068539772e-14,-162.0" stroke="white" stroke-linecap="square" stroke-width="1" transform="rotate(-90)" /><text fill="black" font-size="28pt" style="font-family:Arial;font-weight:bold;" text-anchor="middle" x="-137.0" y="-6.2500000000000355">A</text><polygon fill="black" fill-opacity="1" fill-rule="evenodd" points="50.00000000000002,-107.0 50.00000000000002,-57.0 2.1316282072803006e-14,-57.00000000000001 2.7439516068539772e-14,-107.0" transform="rotate(-90)" /><polyline class="hole" fill-opacity="0" points="1.9839278146187122e-14,-107.0 50.00000000000002,-107.0 50.00000000000002,-57.0 2.1316282072803006e-14,-57.00000000000001 2.7439516068539772e-14,-107.0" stroke="white" stroke-linecap="square" stroke-width="1" transform="rotate(-90)" /><text fill="white" font-size="28pt" style="font-family:Arial;font-weight:bold;" text-anchor="middle" x="-82.0" y="-6.250000000000033">B</text><polygon fill="white" fill-opacity="1" fill-rule="evenodd" points="50.00000000000002,-52.0 50.00000000000002,-2.0 2.1316282072803006e-14,-2.0000000000000093 2.7439516068539772e-14,-52.00000000000001" transform="rotate(-90)" /><polyline class="hole" fill-opacity="0" points="1.9839278146187122e-14,-52.0 50.00000000000002,-52.0 50.00000000000002,-2.0 2.1316282072803006e-14,-2.0000000000000093 2.7439516068539772e-14,-52.00000000000001" stroke="white" stroke-linecap="square" stroke-width="1" transform="rotate(-90)" /><text fill="black" font-size="28pt" style="font-family:Arial;font-weight:bold;" text-anchor="middle" x="-27.000000000000007" y="-6.250000000000029">C</text><polygon fill="black" fill-opacity="1" fill-rule="evenodd" points="50.00000000000002,3.000000000000003 50.00000000000002,53.0 2.1316282072803006e-14,52.99999999999999 2.7439516068539772e-14,2.999999999999993" transform="rotate(-90)" /><polyline class="hole" fill-opacity="0" points="1.9839278146187122e-14,3.0 50.00000000000002,3.000000000000003 50.00000000000002,53.0 2.1316282072803006e-14,52.99999999999999 2.7439516068539772e-14,2.999999999999993" stroke="white" stroke-linecap="square" stroke-width="1" transform="rotate(-90)" /><text fill="white" font-size="28pt" style="font-family:Arial;font-weight:bold;" text-anchor="middle" x="27.999999999999993" y="-6.250000000000026">D</text><polygon fill="white" fill-opacity="1" fill-rule="evenodd" points="50.00000000000002,58.0 50.00000000000002,108.0 2.1316282072803006e-14,107.99999999999999 2.7439516068539772e-14,57.999999999999986" transform="rotate(-90)" /><polyline class="hole" fill-opacity="0" points="1.9839278146187122e-14,58.0 50.00000000000002,58.0 50.00000000000002,108.0 2.1316282072803006e-14,107.99999999999999 2.7439516068539772e-14,57.999999999999986" stroke="white" stroke-linecap="square" stroke-width="1" transform="rotate(-90)" /><text fill="black" font-size="28pt" style="font-family:Arial;font-weight:bold;" text-anchor="middle" x="82.99999999999999" y="-6.250000000000022">E</text><polygon fill="black" fill-opacity="1" fill-rule="evenodd" points="50.00000000000002,113.0 50.00000000000002,163.0 2.1316282072803006e-14,163.0 2.7439516068539772e-14,113.0" transform="rotate(-90)" /><polyline class="hole" fill-opacity="0" points="1.9839278146187122e-14,113.0 50.00000000000002,113.0 50.00000000000002,163.0 2.1316282072803006e-14,163.0 2.7439516068539772e-14,113.0" stroke="white" stroke-linecap="square" stroke-width="1" transform="rotate(-90)" /><text fill="white" font-size="28pt" style="font-family:Arial;font-weight:bold;" text-anchor="middle" x="138.0" y="-6.250000000000019">F</text><polygon fill="black" fill-opacity="1" fill-rule="evenodd" points="-4.999999999999943,-161.0 -4.999999999999943,-111.0 -54.99999999999994,-111.00000000000001 -54.999999999999936,-161.0" transform="rotate(-90)" /><polyline class="hole" fill-opacity="0" points="-54.99999999999994,-161.0 -4.999999999999943,-161.0 -4.999999999999943,-111.0 -54.99999999999994,-111.00000000000001 -54.999999999999936,-161.0" stroke="white" stroke-linecap="square" stroke-width="1" transform="rotate(-90)" /><text fill="white" font-size="28pt" style="font-family:Arial;font-weight:bold;" text-anchor="middle" x="-136.0" y="48.74999999999993">G</text><polygon fill="white" fill-opacity="1" fill-rule="evenodd" points="-4.999999999999943,-106.0 -4.999999999999943,-56.0 -54.99999999999994,-56.00000000000001 -54.999999999999936,-106.0" transform="rotate(-90)" /><polyline class="hole" fill-opacity="0" points="-54.99999999999994,-106.0 -4.999999999999943,-106.0 -4.999999999999943,-56.0 -54.99999999999994,-56.00000000000001 -54.999999999999936,-106.0" stroke="white" stroke-linecap="square" stroke-width="1" transform="rotate(-90)" /><text fill="black" font-size="28pt" style="font-family:Arial;font-weight:bold;" text-anchor="middle" x="-81.0" y="48.74999999999993">H</text><polygon fill="black" fill-opacity="1" fill-rule="evenodd" points="-4.999999999999943,-51.0 -4.999999999999943,-1.0 -54.99999999999994,-1.000000000000009 -54.999999999999936,-51.00000000000001" transform="rotate(-90)" /><polyline class="hole" fill-opacity="0" points="-54.99999999999994,-51.0 -4.999999999999943,-51.0 -4.999999999999943,-1.0 -54.99999999999994,-1.000000000000009 -54.999999999999936,-51.00000000000001" stroke="white" stroke-linecap="square" stroke-width="1" transform="rotate(-90)" /><text fill="white" font-size="28pt" style="font-family:Arial;font-weight:bold;" text-anchor="middle" x="-26.00000000000001" y="48.749999999999936">I</text><polygon fill="white" fill-opacity="1" fill-rule="evenodd" points="-4.999999999999943,4.000000000000003 -4.999999999999943,54.0 -54.99999999999994,53.99999999999999 -54.999999999999936,3.999999999999993" transform="rotate(-90)" /><polyline class="hole" fill-opacity="0" points="-54.99999999999994,4.0 -4.999999999999943,4.000000000000003 -4.999999999999943,54.0 -54.99999999999994,53.99999999999999 -54.999999999999936,3.999999999999993" stroke="white" stroke-linecap="square" stroke-width="1" transform="rotate(-90)" /><text fill="black" font-size="28pt" style="font-family:Arial;font-weight:bold;" text-anchor="middle" x="28.99999999999999" y="48.749999999999936">J</text><polygon fill="black" fill-opacity="1" fill-rule="evenodd" points="-4.999999999999943,59.0 -4.999999999999943,109.0 -54.99999999999994,108.99999999999999 -54.999999999999936,58.999999999999986" transform="rotate(-90)" /><polyline class="hole" fill-opacity="0" points="-54.99999999999994,59.0 -4.999999999999943,59.0 -4.999999999999943,109.0 -54.99999999999994,108.99999999999999 -54.999999999999936,58.999999999999986" stroke="white" stroke-linecap="square" stroke-width="1" transform="rotate(-90)" /><text fill="white" font-size="28pt" style="font-family:Arial;font-weight:bold;" text-anchor="middle" x="83.99999999999999" y="48.74999999999994">K</text><polygon fill="white" fill-opacity="1" fill-rule="evenodd" points="-4.999999999999943,114.0 -4.999999999999943,164.0 -54.99999999999994,164.0 -54.999999999999936,114.0" transform="rotate(-90)" /><polyline class="hole" fill-opacity="0" points="-54.99999999999994,114.0 -4.999999999999943,114.0 -4.999999999999943,164.0 -54.99999999999994,164.0 -54.999999999999936,114.0" stroke="white" stroke-linecap="square" stroke-width="1" transform="rotate(-90)" /><text fill="black" font-size="28pt" style="font-family:Arial;font-weight:bold;" text-anchor="middle" x="139.0" y="48.74999999999994">L</text><polygon fill="white" fill-opacity="1" fill-rule="evenodd" points="-59.9999999999999,-160.0 -59.9999999999999,-110.0 -109.9999999999999,-110.00000000000001 -109.9999999999999,-160.0" transform="rotate(-90)" /><polyline class="hole" fill-opacity="0" points="-109.9999999999999,-160.0 -59.9999999999999,-160.0 -59.9999999999999,-110.0 -109.9999999999999,-110.00000000000001 -109.9999999999999,-160.0" stroke="white" stroke-linecap="square" stroke-width="1" transform="rotate(-90)" /><text fill="black" font-size="28pt" style="font-family:Arial;font-weight:bold;" text-anchor="middle" x="-135.0" y="103.74999999999989">M</text><polygon fill="black" fill-opacity="1" fill-rule="evenodd" points="-59.9999999999999,-105.0 -59.9999999999999,-55.0 -109.9999999999999,-55.00000000000001 -109.9999999999999,-105.0" transform="rotate(-90)" /><polyline class="hole" fill-opacity="0" points="-109.9999999999999,-105.0 -59.9999999999999,-105.0 -59.9999999999999,-55.0 -109.9999999999999,-55.00000000000001 -109.9999999999999,-105.0" stroke="white" stroke-linecap="square" stroke-width="1" transform="rotate(-90)" /><text fill="white" font-size="28pt" style="font-family:Arial;font-weight:bold;" text-anchor="middle" x="-80.0" y="103.7499999999999">N</text><polygon fill="white" fill-opacity="1" fill-rule="evenodd" points="-59.9999999999999,-50.0 -59.9999999999999,0.0 -109.9999999999999,-9.184850993605149e-15 -109.9999999999999,-50.00000000000001" transform="rotate(-90)" /><polyline class="hole" fill-opacity="0" points="-109.9999999999999,-50.0 -59.9999999999999,-50.0 -59.9999999999999,0.0 -109.9999999999999,-9.184850993605149e-15 -109.9999999999999,-50.00000000000001" stroke="white" stroke-linecap="square" stroke-width="1" transform="rotate(-90)" /><text fill="black" font-size="28pt" style="font-family:Arial;font-weight:bold;" text-anchor="middle" x="-25.000000000000014" y="103.7499999999999">O</text><polygon fill="black" fill-opacity="1" fill-rule="evenodd" points="-59.9999999999999,5.000000000000003 -59.9999999999999,55.0 -109.9999999999999,54.99999999999999 -109.9999999999999,4.999999999999993" transform="rotate(-90)" /><polyline class="hole" fill-opacity="0" points="-109.9999999999999,5.0 -59.9999999999999,5.000000000000003 -59.9999999999999,55.0 -109.9999999999999,54.99999999999999 -109.9999999999999,4.999999999999993" stroke="white" stroke-linecap="square" stroke-width="1" transform="rotate(-90)" /><text fill="white" font-size="28pt" style="font-family:Arial;font-weight:bold;" text-anchor="middle" x="29.999999999999986" y="103.7499999999999">P</text><polygon fill="white" fill-opacity="1" fill-rule="evenodd" points="-59.9999999999999,60.0 -59.9999999999999,110.0 -109.9999999999999,109.99999999999999 -109.9999999999999,59.999999999999986" transform="rotate(-90)" /><polyline class="hole" fill-opacity="0" points="-109.9999999999999,60.0 -59.9999999999999,60.0 -59.9999999999999,110.0 -109.9999999999999,109.99999999999999 -109.9999999999999,59.999999999999986" stroke="white" stroke-linecap="square" stroke-width="1" transform="rotate(-90)" /><text fill="black" font-size="28pt" style="font-family:Arial;font-weight:bold;" text-anchor="middle" x="84.99999999999999" y="103.7499999999999">Q</text><polygon fill="black" fill-opacity="1" fill-rule="evenodd" points="-59.9999999999999,115.0 -59.9999999999999,165.0 -109.9999999999999,165.0 -109.9999999999999,115.0" transform="rotate(-90)" /><polyline class="hole" fill-opacity="0" points="-109.9999999999999,115.0 -59.9999999999999,115.0 -59.9999999999999,165.0 -109.9999999999999,165.0 -109.9999999999999,115.0" stroke="white" stroke-linecap="square" stroke-width="1" transform="rotate(-90)" /><text fill="white" font-size="28pt" style="font-family:Arial;font-weight:bold;" text-anchor="middle" x="140.0" y="103.74999999999991">R</text><polygon fill="black" fill-opacity="1" fill-rule="evenodd" points="-114.99999999999986,-159.0 -114.99999999999986,-109.0 -164.99999999999986,-109.00000000000001 -164.99999999999986,-159.0" transform="rotate(-90)" /><polyline class="hole" fill-opacity="0" points="-164.99999999999986,-159.0 -114.99999999999986,-159.0 -114.99999999999986,-109.0 -164.99999999999986,-109.00000000000001 -164.99999999999986,-159.0" stroke="white" stroke-linecap="square" stroke-width="1" transform="rotate(-90)" /><text fill="white" font-size="28pt" style="font-family:Arial;font-weight:bold;" text-anchor="middle" x="-134.0" y="158.74999999999986">S</text><polygon fill="white" fill-opacity="1" fill-rule="evenodd" points="-114.99999999999986,-104.0 -114.99999999999986,-54.0 -164.99999999999986,-54.00000000000001 -164.99999999999986,-104.0" transform="rotate(-90)" /><polyline class="hole" fill-opacity="0" points="-164.99999999999986,-104.0 -114.99999999999986,-104.0 -114.99999999999986,-54.0 -164.99999999999986,-54.00000000000001 -164.99999999999986,-104.0" stroke="white" stroke-linecap="square" stroke-width="1" transform="rotate(-90)" /><text fill="black" font-size="28pt" style="font-family:Arial;font-weight:bold;" text-anchor="middle" x="-79.00000000000001" y="158.74999999999986">T</text><polygon fill="black" fill-opacity="1" fill-rule="evenodd" points="-114.99999999999986,-49.0 -114.99999999999986,1.0 -164.99999999999986,0.9999999999999908 -164.99999999999986,-49.00000000000001" transform="rotate(-90)" /><polyline class="hole" fill-opacity="0" points="-164.99999999999986,-49.0 -114.99999999999986,-49.0 -114.99999999999986,1.0 -164.99999999999986,0.9999999999999908 -164.99999999999986,-49.00000000000001" stroke="white" stroke-linecap="square" stroke-width="1" transform="rotate(-90)" /><text fill="white" font-size="28pt" style="font-family:Arial;font-weight:bold;" text-anchor="middle" x="-24.000000000000018" y="158.74999999999986">U</text><polygon fill="white" fill-opacity="1" fill-rule="evenodd" points="-114.99999999999986,6.000000000000003 -114.99999999999986,56.0 -164.99999999999986,55.99999999999999 -164.99999999999986,5.999999999999993" transform="rotate(-90)" /><polyline class="hole" fill-opacity="0" points="-164.99999999999986,6.0 -114.99999999999986,6.000000000000003 -114.99999999999986,56.0 -164.99999999999986,55.99999999999999 -164.99999999999986,5.999999999999993" stroke="white" stroke-linecap="square" stroke-width="1" transform="rotate(-90)" /><text fill="black" font-size="28pt" style="font-family:Arial;font-weight:bold;" text-anchor="middle" x="30.999999999999982" y="158.74999999999986">V</text><polygon fill="black" fill-opacity="1" fill-rule="evenodd" points="-114.99999999999986,61.0 -114.99999999999986,111.0 -164.99999999999986,110.99999999999999 -164.99999999999986,60.999999999999986" transform="rotate(-90)" /><polyline class="hole" fill-opacity="0" points="-164.99999999999986,61.0 -114.99999999999986,61.0 -114.99999999999986,111.0 -164.99999999999986,110.99999999999999 -164.99999999999986,60.999999999999986" stroke="white" stroke-linecap="square" stroke-width="1" transform="rotate(-90)" /><text fill="white" font-size="28pt" style="font-family:Arial;font-weight:bold;" text-anchor="middle" x="85.99999999999997" y="158.74999999999986">W</text><polygon fill="white" fill-opacity="1" fill-rule="evenodd" points="-114.99999999999986,116.0 -114.99999999999986,166.0 -164.99999999999986,166.0 -164.99999999999986,116.0" transform="rotate(-90)" /><polyline class="hole" fill-opacity="0" points="-164.99999999999986,116.0 -114.99999999999986,116.0 -114.99999999999986,166.0 -164.99999999999986,166.0 -164.99999999999986,116.0" stroke="white" stroke-linecap="square" stroke-width="1" transform="rotate(-90)" /><text fill="black" font-size="28pt" style="font-family:Arial;font-weight:bold;" text-anchor="middle" x="141.0" y="158.74999999999986">X</text><polygon fill="white" fill-opacity="1" fill-rule="evenodd" points="-169.99999999999983,-158.0 -169.99999999999983,-108.0 -219.99999999999983,-108.00000000000001 -219.99999999999983,-158.0" transform="rotate(-90)" /><polyline class="hole" fill-opacity="0" points="-219.99999999999983,-158.0 -169.99999999999983,-158.0 -169.99999999999983,-108.0 -219.99999999999983,-108.00000000000001 -219.99999999999983,-158.0" stroke="white" stroke-linecap="square" stroke-width="1" transform="rotate(-90)" /><text fill="black" font-size="28pt" style="font-family:Arial;font-weight:bold;" text-anchor="middle" x="-133.0" y="213.74999999999983">Y</text><polygon fill="black" fill-opacity="1" fill-rule="evenodd" points="-169.99999999999983,-103.0 -169.99999999999983,-53.0 -219.99999999999983,-53.00000000000001 -219.99999999999983,-103.0" transform="rotate(-90)" /><polyline class="hole" fill-opacity="0" points="-219.99999999999983,-103.0 -169.99999999999983,-103.0 -169.99999999999983,-53.0 -219.99999999999983,-53.00000000000001 -219.99999999999983,-103.0" stroke="white" stroke-linecap="square" stroke-width="1" transform="rotate(-90)" /><text fill="white" font-size="28pt" style="font-family:Arial;font-weight:bold;" text-anchor="middle" x="-78.00000000000001" y="213.74999999999983">Z</text><polygon fill="white" fill-opacity="1" fill-rule="evenodd" points="-169.99999999999983,-48.0 -169.99999999999983,2.0 -219.99999999999983,1.999999999999991 -219.99999999999983,-48.00000000000001" transform="rotate(-90)" /><polyline class="hole" fill-opacity="0" points="-219.99999999999983,-48.0 -169.99999999999983,-48.0 -169.99999999999983,2.0 -219.99999999999983,1.999999999999991 -219.99999999999983,-48.00000000000001" stroke="white" stroke-linecap="square" stroke-width="1" transform="rotate(-90)" /><text fill="black" font-size="28pt" style="font-family:Arial;font-weight:bold;" text-anchor="middle" x="-23.00000000000002" y="213.74999999999983">0</text><polygon fill="black" fill-opacity="1" fill-rule="evenodd" points="-169.99999999999983,7.000000000000003 -169.99999999999983,57.0 -219.99999999999983,56.99999999999999 -219.99999999999983,6.999999999999993" transform="rotate(-90)" /><polyline class="hole" fill-opacity="0" points="-219.99999999999983,7.0 -169.99999999999983,7.000000000000003 -169.99999999999983,57.0 -219.99999999999983,56.99999999999999 -219.99999999999983,6.999999999999993" stroke="white" stroke-linecap="square" stroke-width="1" transform="rotate(-90)" /><text fill="white" font-size="28pt" style="font-family:Arial;font-weight:bold;" text-anchor="middle" x="31.99999999999998" y="213.74999999999983">1</text><polygon fill="white" fill-opacity="1" fill-rule="evenodd" points="-169.99999999999983,62.0 -169.99999999999983,112.0 -219.99999999999983,111.99999999999999 -219.99999999999983,61.999999999999986" transform="rotate(-90)" /><polyline class="hole" fill-opacity="0" points="-219.99999999999983,62.0 -169.99999999999983,62.0 -169.99999999999983,112.0 -219.99999999999983,111.99999999999999 -219.99999999999983,61.999999999999986" stroke="white" stroke-linecap="square" stroke-width="1" transform="rotate(-90)" /><text fill="black" font-size="28pt" style="font-family:Arial;font-weight:bold;" text-anchor="middle" x="86.99999999999997" y="213.74999999999983">2</text><polygon fill="black" fill-opacity="1" fill-rule="evenodd" points="-169.99999999999983,117.0 -169.99999999999983,167.0 -219.99999999999983,167.0 -219.99999999999983,117.0" transform="rotate(-90)" /><polyline class="hole" fill-opacity="0" points="-219.99999999999983,117.0 -169.99999999999983,117.0 -169.99999999999983,167.0 -219.99999999999983,167.0 -219.99999999999983,117.0" stroke="white" stroke-linecap="square" stroke-width="1" transform="rotate(-90)" /><text fill="white" font-size="28pt" style="font-family:Arial;font-weight:bold;" text-anchor="middle" x="142.0" y="213.74999999999983">3</text></svg>