<?xml version="1.0" encoding="utf-8" ?>
<svg baseProfile="full" height="641.0" version="1.1" viewBox="-320.5 -320.5 641.0 641.0" width="641.0" xmlns="http://www.w3.org/2000/svg" xmlns:ev="http://www.w3.org/2001/xml-events" xmlns:xlink="http://www.w3.org/1999/xlink"><defs /><polygon fill="#00ff00" fill-opacity="1" fill-rule="evenodd" points="20.0,1.2246467991473533e-15 320.0,1.9594348786357652e-14 38.092213764227495,102.60604299770071 19.999999999999996,9.947598300641403e-14 20.0,1.2246467991473533e-15 0.0,0.0 19.318516525781366,5.176380902050415 309.09626441250185,82.82209443280664 10.237854984978185,108.968817257104 19.318516525781362,5.176380902050326 19.318516525781366,5.176380902050415 0.0,0.0 17.32050807568877,10.000000000000002 277.1281292110204,160.00000000000003 -18.314196692641985,107.90554669992093 17.32050807568885,10.000000000000043 17.32050807568877,10.000000000000002 0.0,0.0 14.14213562373095,14.142135623730951 226.2741699796952,226.27416997969522 -45.61816613129983,99.48869145748547 14.14213562373088,14.142135623731036 14.14213562373095,14.142135623730951 0.0,0.0 9.999999999999998,17.320508075688775 159.99999999999997,277.1281292110204 -69.81333293569341,84.29184630505856 10.0,17.320508075688764 9.999999999999998,17.320508075688775 0.0,0.0 5.176380902050415,19.318516525781366 82.82209443280664,309.09626441250185 -89.25083647250722,63.35065112580432 5.176380902050383,19.318516525781384 5.176380902050415,19.318516525781366 0.0,0.0 0.0,20.0 0.0,320.0 -102.6060429977006,38.092213764227495 1.4210854715202004e-14,20.000000000000014 0.0,20.0 0.0,0.0 -5.176380902050414,19.318516525781366 -82.82209443280662,309.09626441250185 -108.968817257104,10.237854984978185 -5.176380902050326,19.318516525781355 -5.176380902050414,19.318516525781366 0.0,0.0 -10.000000000000009,17.320508075688767 -160.00000000000014,277.1281292110203 -107.90554669992106,-18.3141966926421 -10.00000000000017,17.320508075688736 -10.000000000000009,17.320508075688767 0.0,0.0 -14.142135623730955,14.142135623730947 -226.27416997969524,226.27416997969516 -99.4886914574854,-45.6181661312998 -14.14213562373098,14.142135623730937 -14.142135623730955,14.142135623730947 0.0,0.0 -17.32050807568877,10.000000000000002 -277.1281292110204,160.00000000000003 -84.29184630505856,-69.81333293569335 -17.320508075688764,10.000000000000057 -17.32050807568877,10.000000000000002 0.0,0.0 -19.31851652578137,5.176380902050406 -309.0962644125019,82.8220944328065 -63.350651125804404,-89.25083647250736 -19.318516525781455,5.176380902050241 -19.31851652578137,5.176380902050406 0.0,0.0 -20.0,-3.673940397442059e-15 -320.0,-5.878304635907295e-14 -38.092213764227495,-102.60604299770067 -20.000000000000014,-5.684341886080802e-14 -20.0,-3.673940397442059e-15 0.0,0.0 -19.318516525781366,-5.176380902050413 -309.09626441250185,-82.8220944328066 -10.237854984978185,-108.96881725710406 -19.318516525781373,-5.176380902050383 -19.318516525781366,-5.176380902050413 0.0,0.0 -17.320508075688767,-10.000000000000009 -277.1281292110203,-160.00000000000014 18.3141966926421,-107.90554669992102 -17.320508075688707,-10.000000000000128 -17.320508075688767,-10.000000000000009 0.0,0.0 -14.14213562373095,-14.142135623730955 -226.2741699796952,-226.27416997969524 45.61816613129977,-99.48869145748542 -14.142135623731,-14.142135623731022 -14.14213562373095,-14.142135623730955 0.0,0.0 -10.000000000000002,-17.32050807568877 -160.00000000000003,-277.1281292110204 69.81333293569338,-84.29184630505858 -10.000000000000028,-17.320508075688792 -10.000000000000002,-17.32050807568877 0.0,0.0 -5.176380902050416,-19.318516525781366 -82.82209443280665,-309.09626441250185 89.25083647250717,-63.35065112580432 -5.1763809020504254,-19.318516525781355 -5.176380902050416,-19.318516525781366 0.0,0.0 2.4492935982947065e-15,-20.0 3.9188697572715304e-14,-320.0 102.60604299770065,-38.092213764227495 2.842170943040401e-14,-20.00000000000005 2.4492935982947065e-15,-20.0 0.0,0.0 5.17638090205042,-19.318516525781362 82.82209443280674,-309.09626441250185 108.96881725710418,-10.237854984978185 5.1763809020504965,-19.318516525781366 5.17638090205042,-19.318516525781362 0.0,0.0 9.999999999999998,-17.320508075688775 159.99999999999997,-277.1281292110204 107.90554669992085,18.314196692641985 9.999999999999957,-17.32050807568882 9.999999999999998,-17.320508075688775 0.0,0.0 14.142135623730951,-14.14213562373095 226.27416997969522,-226.2741699796952 99.48869145748544,45.61816613129983 14.14213562373105,-14.14213562373093 14.142135623730951,-14.14213562373095 0.0,0.0 17.320508075688775,-9.999999999999996 277.1281292110204,-159.99999999999994 84.29184630505853,69.81333293569338 17.320508075688736,-10.000000000000028 17.320508075688775,-9.999999999999996 0.0,0.0 19.318516525781366,-5.176380902050417 309.09626441250185,-82.82209443280667 63.35065112580432,89.25083647250716 19.31851652578139,-5.17638090205044 19.318516525781366,-5.176380902050417 0.0,0.0" transform="rotate(-90)" /><polyline class="hole" fill-opacity="0" points="20.0,1.2246467991473533e-15 320.0,1.9594348786357652e-14 38.092213764227495,102.60604299770071 19.999999999999996,9.947598300641403e-14 20.0,1.2246467991473533e-15" stroke="white" stroke-width="1" transform="rotate(-90)" /><polyline class="hole" fill-opacity="0" points="19.318516525781366,5.176380902050415 309.09626441250185,82.82209443280664 10.237854984978185,108.968817257104 19.318516525781362,5.176380902050326 19.318516525781366,5.176380902050415" stroke="white" stroke-width="1" transform="rotate(-90)" /><polyline class="hole" fill-opacity="0" points="17.32050807568877,10.000000000000002 277.1281292110204,160.00000000000003 -18.314196692641985,107.90554669992093 17.32050807568885,10.000000000000043 17.32050807568877,10.000000000000002" stroke="white" stroke-width="1" transform="rotate(-90)" /><polyline class="hole" fill-opacity="0" points="14.14213562373095,14.142135623730951 226.2741699796952,226.27416997969522 -45.61816613129983,99.48869145748547 14.14213562373088,14.142135623731036 14.14213562373095,14.142135623730951" stroke="white" stroke-width="1" transform="rotate(-90)" /><polyline class="hole" fill-opacity="0" points="9.999999999999998,17.320508075688775 159.99999999999997,277.1281292110204 -69.81333293569341,84.29184630505856 10.0,17.320508075688764 9.999999999999998,17.320508075688775" stroke="white" stroke-width="1" transform="rotate(-90)" /><polyline class="hole" fill-opacity="0" points="5.176380902050415,19.318516525781366 82.82209443280664,309.09626441250185 -89.25083647250722,63.35065112580432 5.176380902050383,19.318516525781384 5.176380902050415,19.318516525781366" stroke="white" stroke-width="1" transform="rotate(-90)" /><polyline class="hole" fill-opacity="0" points="0.0,20.0 0.0,320.0 -102.6060429977006,38.092213764227495 1.4210854715202004e-14,20.000000000000014 0.0,20.0" stroke="white" stroke-width="1" transform="rotate(-90)" /><polyline class="hole" fill-opacity="0" points="-5.176380902050414,19.318516525781366 -82.82209443280662,309.09626441250185 -108.968817257104,10.237854984978185 -5.176380902050326,19.318516525781355 -5.176380902050414,19.318516525781366" stroke="white" stroke-width="1" transform="rotate(-90)" /><polyline class="hole" fill-opacity="0" points="-10.000000000000009,17.320508075688767 -160.00000000000014,277.1281292110203 -107.90554669992106,-18.3141966926421 -10.00000000000017,17.320508075688736 -10.000000000000009,17.320508075688767" stroke="white" stroke-width="1" transform="rotate(-90)" /><polyline class="hole" fill-opacity="0" points="-14.142135623730955,14.142135623730947 -226.27416997969524,226.27416997969516 -99.4886914574854,-45.6181661312998 -14.14213562373098,14.142135623730937 -14.142135623730955,14.142135623730947" stroke="white" stroke-width="1" transform="rotate(-90)" /><polyline class="hole" fill-opacity="0" points="-17.32050807568877,10.000000000000002 -277.1281292110204,160.00000000000003 -84.29184630505856,-69.81333293569335 -17.320508075688764,10.000000000000057 -17.32050807568877,10.000000000000002" stroke="white" stroke-width="1" transform="rotate(-90)" /><polyline class="hole" fill-opacity="0" points="-19.31851652578137,5.176380902050406 -309.0962644125019,82.8220944328065 -63.350651125804404,-89.25083647250736 -19.318516525781455,5.176380902050241 -19.31851652578137,5.176380902050406" stroke="white" stroke-width="1" transform="rotate(-90)" /><polyline class="hole" fill-opacity="0" points="-20.0,-3.673940397442059e-15 -320.0,-5.878304635907295e-14 -38.092213764227495,-102.60604299770067 -20.000000000000014,-5.684341886080802e-14 -20.0,-3.673940397442059e-15" stroke="white" stroke-width="1" transform="rotate(-90)" /><polyline class="hole" fill-opacity="0" points="-19.318516525781366,-5.176380902050413 -309.09626441250185,-82.8220944328066 -10.237854984978185,-108.96881725710406 -19.318516525781373,-5.176380902050383 -19.318516525781366,-5.176380902050413" stroke="white" stroke-width="1" transform="rotate(-90)" /><polyline class="hole" fill-opacity="0" points="-17.320508075688767,-10.000000000000009 -277.1281292110203,-160.00000000000014 18.3141966926421,-107.90554669992102 -17.320508075688707,-10.000000000000128 -17.320508075688767,-10.000000000000009" stroke="white" stroke-width="1" transform="rotate(-90)" /><polyline class="hole" fill-opacity="0" points="-14.14213562373095,-14.142135623730955 -226.2741699796952,-226.27416997969524 45.61816613129977,-99.48869145748542 -14.142135623731,-14.142135623731022 -14.14213562373095,-14.142135623730955" stroke="white" stroke-width="1" transform="rotate(-90)" /><polyline class="hole" fill-opacity="0" points="-10.000000000000002,-17.32050807568877 -160.00000000000003,-277.1281292110204 69.81333293569338,-84.29184630505858 -10.000000000000028,-17.320508075688792 -10.000000000000002,-17.32050807568877" stroke="white" stroke-width="1" transform="rotate(-90)" /><polyline class="hole" fill-opacity="0" points="-5.176380902050416,-19.318516525781366 -82.82209443280665,-309.09626441250185 89.25083647250717,-63.35065112580432 -5.1763809020504254,-19.318516525781355 -5.176380902050416,-19.318516525781366" stroke="white" stroke-width="1" transform="rotate(-90)" /><polyline class="hole" fill-opacity="0" points="2.4492935982947065e-15,-20.0 3.9188697572715304e-14,-320.0 102.60604299770065,-38.092213764227495 2.842170943040401e-14,-20.00000000000005 2.4492935982947065e-15,-20.0" stroke="white" stroke-width="1" transform="rotate(-90)" /><polyline class="hole" fill-opacity="0" points="5.17638090205042,-19.318516525781362 82.82209443280674,-309.09626441250185 108.96881725710418,-10.237854984978185 5.1763809020504965,-19.318516525781366 5.17638090205042,-19.318516525781362" stroke="white" stroke-width="1" transform="rotate(-90)" /><polyline class="hole" fill-opacity="0" points="9.999999999999998,-17.320508075688775 159.99999999999997,-277.1281292110204 107.90554669992085,18.314196692641985 9.999999999999957,-17.32050807568882 9.999999999999998,-17.320508075688775" stroke="white" stroke-width="1" transform="rotate(-90)" /><polyline class="hole" fill-opacity="0" points="14.142135623730951,-14.14213562373095 226.27416997969522,-226.2741699796952 99.48869145748544,45.61816613129983 14.14213562373105,-14.14213562373093 14.142135623730951,-14.14213562373095" stroke="white" stroke-width="1" transform="rotate(-90)" /><polyline class="hole" fill-opacity="0" points="17.320508075688775,-9.999999999999996 277.1281292110204,-159.99999999999994 84.29184630505853,69.81333293569338 17.320508075688736,-10.000000000000028 17.320508075688775,-9.999999999999996" stroke="white" stroke-width="1" transform="rotate(-90)" /><polyline class="hole" fill-opacity="0" points="19.318516525781366,-5.176380902050417 309.09626441250185,-82.82209443280667 63.35065112580432,89.25083647250716 19.31851652578139,-5.17638090205044 19.318516525781366,-5.176380902050417" stroke="white" stroke-width="1" transform="rotate(-90)" /></svg>