<?xml version="1.0" encoding="utf-8" ?>
<svg baseProfile="full" height="474.99999999999994" version="1.1" viewBox="-102.50000000000001 -202.5 474.99999999999994 315.0" width="315.0" xmlns="http://www.w3.org/2000/svg" xmlns:ev="http://www.w3.org/2001/xml-events" xmlns:xlink="http://www.w3.org/1999/xlink"><defs /><polyline class="hole" fill-opacity="0" points="0,0 0.0,10.0 -10.0,9.999999999999998 -10.0,20.0 -20.0,19.999999999999996 -20.0,9.999999999999996 -30.0,9.999999999999995 -30.0,19.999999999999993 -40.0,19.99999999999999 -40.0,9.99999999999999 -30.0,9.99999999999999 -30.0,-1.0658141036401503e-14 -40.0,-1.2495111235122533e-14 -40.0,-10.000000000000012 -50.0,-10.000000000000014 -50.0,-1.4210854715202004e-14 -60.0,-1.6047824913923034e-14 -60.0,-10.000000000000016 -50.0,-10.000000000000016 -50.0,-20.000000000000014 -40.0,-20.000000000000014 -40.0,-10.000000000000014 -30.0,-10.000000000000014 -30.0,-20.000000000000014 -40.0,-20.000000000000018 -40.0,-30.000000000000018 -30.0,-30.000000000000018 -30.0,-40.000000000000014 -40.0,-40.000000000000014 -40.0,-50.000000000000014 -50.0,-50.000000000000014 -50.0,-40.000000000000014 -60.0,-40.000000000000014 -60.0,-50.000000000000014 -50.0,-50.000000000000014 -50.0,-60.000000000000014 -40.0,-60.000000000000014 -40.0,-50.000000000000014 -30.0,-50.000000000000014 -30.0,-60.000000000000014 -20.0,-60.000000000000014 -20.0,-50.000000000000014 -30.0,-50.000000000000014 -30.0,-40.000000000000014 -20.0,-40.000000000000014 -20.0,-30.000000000000014 -10.0,-30.000000000000014 -9.999999999999998,-40.000000000000014 -20.0,-40.000000000000014 -20.0,-50.000000000000014 -10.0,-50.000000000000014 -9.999999999999998,-60.000000000000014 1.7763568394002505e-15,-60.000000000000014 1.7763568394002505e-15,-50.000000000000014 10.000000000000002,-50.000000000000014 10.000000000000004,-60.000000000000014 3.552713678800501e-15,-60.000000000000014 4.777360477947854e-15,-70.00000000000001 10.000000000000005,-70.00000000000001 10.000000000000007,-80.00000000000001 7.105427357601002e-15,-80.00000000000001 8.330074156748355e-15,-90.00000000000001 -9.999999999999991,-90.00000000000001 -9.999999999999991,-80.00000000000001 -19.999999999999993,-80.00000000000001" stroke="green" stroke-width="5" transform="rotate(-90)" /><polyline class="hole" fill-opacity="0" points="-19.999999999999993,-80.00000000000001 -19.999999999999993,-90.00000000000001 -9.999999999999993,-90.00000000000001 -9.999999999999991,-100.00000000000001 8.881784197001252e-15,-100.00000000000001 8.881784197001252e-15,-90.00000000000001 10.000000000000009,-90.00000000000001 10.00000000000001,-100.00000000000001 20.00000000000001,-100.00000000000001 20.00000000000001,-90.00000000000001 10.00000000000001,-90.00000000000001 10.00000000000001,-80.00000000000001 20.00000000000001,-80.00000000000001 20.00000000000001,-70.00000000000001 30.00000000000001,-70.00000000000001 30.00000000000001,-80.00000000000001 40.000000000000014,-80.00000000000001 40.000000000000014,-70.00000000000001 30.000000000000014,-70.00000000000001 30.000000000000014,-60.000000000000014 20.000000000000014,-60.000000000000014 20.000000000000014,-70.00000000000001 10.000000000000014,-70.00000000000001 10.000000000000014,-60.000000000000014 20.000000000000014,-60.000000000000014 20.000000000000014,-50.000000000000014 10.000000000000014,-50.000000000000014 10.000000000000014,-40.000000000000014 20.000000000000014,-40.000000000000014 20.000000000000014,-30.000000000000014 30.000000000000014,-30.000000000000014 30.000000000000014,-40.000000000000014 20.000000000000014,-40.000000000000014 20.000000000000014,-50.000000000000014 30.000000000000014,-50.000000000000014 30.000000000000014,-60.000000000000014 40.000000000000014,-60.000000000000014 40.000000000000014,-50.000000000000014 50.000000000000014,-50.000000000000014 50.000000000000014,-60.000000000000014 60.000000000000014,-60.000000000000014 60.000000000000014,-50.000000000000014 50.000000000000014,-50.000000000000014 50.000000000000014,-40.000000000000014 60.000000000000014,-40.000000000000014 60.000000000000014,-30.000000000000014 70.00000000000001,-30.000000000000014 70.00000000000001,-40.000000000000014 60.000000000000014,-40.000000000000014 60.000000000000014,-50.000000000000014 70.00000000000001,-50.000000000000014 70.00000000000001,-60.000000000000014 80.00000000000001,-60.000000000000014 80.00000000000001,-50.000000000000014 90.00000000000001,-50.000000000000014 90.00000000000001,-60.000000000000014 80.00000000000001,-60.000000000000014 80.00000000000001,-70.00000000000001 90.00000000000001,-70.00000000000001 90.00000000000001,-80.00000000000001 80.00000000000001,-80.00000000000001 80.00000000000001,-90.00000000000001 70.00000000000001,-90.00000000000001 70.00000000000001,-80.00000000000001 60.000000000000014,-80.00000000000001" stroke="gold" stroke-width="5" transform="rotate(-90)" /><polyline class="hole" fill-opacity="0" points="60.000000000000014,-80.00000000000001 60.000000000000014,-90.00000000000001 70.00000000000001,-90.00000000000001 70.00000000000001,-100.00000000000001 80.00000000000001,-100.00000000000001 80.00000000000001,-90.00000000000001 90.00000000000001,-90.00000000000001 90.00000000000001,-100.00000000000001 100.00000000000001,-100.00000000000001 100.00000000000001,-90.00000000000001 90.00000000000001,-90.00000000000001 90.00000000000001,-80.00000000000001 100.00000000000001,-80.00000000000001 100.00000000000001,-70.00000000000001 110.00000000000001,-70.00000000000001 110.00000000000001,-80.00000000000001 120.00000000000001,-80.00000000000001 120.00000000000001,-70.00000000000001 110.00000000000001,-70.00000000000001 110.00000000000001,-60.000000000000014 100.00000000000001,-60.000000000000014 100.00000000000001,-70.00000000000001 90.00000000000001,-70.00000000000001 90.00000000000001,-60.000000000000014 100.00000000000001,-60.000000000000014 100.00000000000001,-50.000000000000014 90.00000000000001,-50.000000000000014 90.00000000000001,-40.000000000000014 100.00000000000001,-40.000000000000014 100.00000000000001,-30.000000000000014 110.00000000000001,-30.000000000000014 110.00000000000001,-40.000000000000014 120.00000000000001,-40.000000000000014 120.00000000000001,-30.000000000000014 110.00000000000001,-30.000000000000018 110.00000000000001,-20.000000000000018 100.00000000000001,-20.00000000000002 100.00000000000001,-30.00000000000002 90.00000000000001,-30.000000000000025 90.00000000000001,-20.000000000000025 80.00000000000001,-20.00000000000003 80.00000000000001,-30.00000000000003 90.00000000000001,-30.00000000000003 90.00000000000001,-40.00000000000003 80.00000000000001,-40.00000000000003 80.00000000000001,-50.00000000000003 70.00000000000001,-50.00000000000003 70.00000000000001,-40.00000000000003 80.00000000000001,-40.00000000000003 80.00000000000001,-30.00000000000003 70.00000000000001,-30.000000000000032 70.00000000000001,-20.000000000000032 60.000000000000014,-20.000000000000036 60.000000000000014,-30.000000000000036 50.000000000000014,-30.00000000000004 50.000000000000014,-20.00000000000004 60.000000000000014,-20.00000000000004 60.000000000000014,-10.000000000000039 50.000000000000014,-10.00000000000004 50.000000000000014,-4.085620730620576e-14 60.000000000000014,-4.0243883906632085e-14 60.000000000000014,9.99999999999996 70.00000000000001,9.99999999999996 70.00000000000001,-4.085620730620576e-14 60.000000000000014,-4.269317750492679e-14" stroke="green" stroke-width="5" transform="rotate(-90)" /><polyline class="hole" fill-opacity="0" points="60.000000000000014,-4.269317750492679e-14 60.000000000000014,-10.000000000000043 70.00000000000001,-10.000000000000043 70.00000000000001,-20.000000000000043 80.00000000000001,-20.000000000000043 80.00000000000001,-10.000000000000043 90.00000000000001,-10.000000000000043 90.00000000000001,-20.000000000000043 100.00000000000001,-20.000000000000043 100.00000000000001,-10.000000000000043 90.00000000000001,-10.000000000000044 90.00000000000001,-4.440892098500626e-14 100.00000000000001,-4.3796597585432586e-14 100.00000000000001,9.999999999999956 110.00000000000001,9.999999999999956 110.00000000000001,-4.440892098500626e-14 120.00000000000001,-4.3796597585432586e-14 120.00000000000001,9.999999999999956 110.00000000000001,9.999999999999954 110.00000000000001,19.999999999999954 100.00000000000001,19.99999999999995 100.00000000000001,9.99999999999995 90.00000000000001,9.999999999999948 90.00000000000001,19.99999999999995 100.00000000000001,19.99999999999995 100.00000000000001,29.99999999999995 90.00000000000001,29.999999999999947 90.00000000000001,39.99999999999994 100.00000000000001,39.99999999999994 100.00000000000001,49.99999999999994 110.00000000000001,49.99999999999994 110.00000000000001,39.99999999999994 100.00000000000001,39.99999999999994 100.00000000000001,29.999999999999943 110.00000000000001,29.999999999999943 110.00000000000001,19.999999999999943 120.00000000000001,19.999999999999943 120.00000000000001,29.999999999999943 130.0,29.999999999999943 130.0,19.999999999999943 140.0,19.999999999999943 140.0,29.999999999999943 130.0,29.99999999999994 130.0,39.99999999999994 140.0,39.99999999999994 140.0,49.99999999999994 150.0,49.99999999999994 150.0,39.99999999999994 140.0,39.99999999999994 140.0,29.999999999999943 150.0,29.999999999999943 150.0,19.999999999999943 160.0,19.999999999999943 160.0,29.999999999999943 170.0,29.999999999999943 170.0,19.999999999999943 160.0,19.99999999999994 160.0,9.99999999999994 170.0,9.99999999999994 170.0,-6.039613253960852e-14 160.0,-6.223310273832954e-14 160.0,-10.000000000000062 150.0,-10.000000000000064 150.0,-6.394884621840902e-14 140.0,-6.578581641713004e-14" stroke="yellowgreen" stroke-width="5" transform="rotate(-90)" /><polyline class="hole" fill-opacity="0" points="140.0,-6.578581641713004e-14 140.0,-10.000000000000066 150.0,-10.000000000000066 150.0,-20.000000000000064 160.0,-20.000000000000064 160.0,-10.000000000000064 170.0,-10.000000000000064 170.0,-20.000000000000064 180.0,-20.000000000000064 180.0,-10.000000000000064 170.0,-10.000000000000066 170.0,-6.572520305780927e-14 180.0,-6.511287965823559e-14 180.0,9.999999999999934 190.0,9.999999999999934 190.0,-6.572520305780927e-14 200.0,-6.511287965823559e-14 200.0,9.999999999999934 190.0,9.999999999999932 190.0,19.999999999999932 180.0,19.99999999999993 180.0,9.999999999999929 170.0,9.999999999999927 170.0,19.99999999999993 180.0,19.99999999999993 180.0,29.99999999999993 170.0,29.999999999999925 170.0,39.99999999999993 180.0,39.99999999999993 180.0,49.99999999999993 190.0,49.99999999999993 190.0,39.99999999999993 200.0,39.99999999999993 200.0,49.99999999999993 190.0,49.99999999999993 190.0,59.99999999999993 180.0,59.99999999999993 180.0,49.99999999999993 170.0,49.99999999999993 170.0,59.99999999999993 160.0,59.99999999999993 160.0,49.99999999999993 170.0,49.99999999999993 170.0,39.99999999999993 160.0,39.99999999999993 160.0,29.99999999999993 150.0,29.999999999999925 150.0,39.99999999999993 160.0,39.99999999999993 160.0,49.99999999999993 150.0,49.99999999999993 150.0,59.99999999999993 140.0,59.99999999999993 140.0,49.99999999999993 130.0,49.99999999999993 130.0,59.99999999999993 140.0,59.99999999999993 140.0,69.99999999999993 130.0,69.99999999999993 130.0,79.99999999999993 140.0,79.99999999999993 140.0,89.99999999999993 150.0,89.99999999999993 150.0,79.99999999999993 160.0,79.99999999999993" stroke="lawngreen" stroke-width="5" transform="rotate(-90)" /><polyline class="hole" fill-opacity="0" points="160.0,79.99999999999993 160.0,89.99999999999993 150.0,89.99999999999993 150.0,99.99999999999993 140.0,99.99999999999993 140.0,89.99999999999993 130.0,89.99999999999993 130.0,99.99999999999993 120.0,99.99999999999993 120.0,89.99999999999993 130.0,89.99999999999993 130.0,79.99999999999993 120.0,79.99999999999993 120.0,69.99999999999993 110.0,69.99999999999993 110.0,79.99999999999993 100.0,79.99999999999993 100.0,69.99999999999993 110.0,69.99999999999993 110.0,59.99999999999993 120.0,59.99999999999993 120.0,69.99999999999993 130.0,69.99999999999993 130.0,59.99999999999993 120.0,59.99999999999993 120.0,49.99999999999993 130.0,49.99999999999993 130.0,39.99999999999993 120.0,39.99999999999993 120.0,29.99999999999993 110.0,29.999999999999925 110.0,39.99999999999993 120.0,39.99999999999993 120.0,49.99999999999993 110.0,49.99999999999993 110.0,59.99999999999993 100.0,59.99999999999993 100.0,49.99999999999993 90.0,49.99999999999993 90.0,59.99999999999993 80.0,59.99999999999993 80.0,49.99999999999993 90.0,49.99999999999993 90.0,39.99999999999993 80.0,39.99999999999993 80.0,29.99999999999993 70.0,29.999999999999925 70.0,39.99999999999993 80.0,39.99999999999993 80.0,49.99999999999993 70.0,49.99999999999993 70.0,59.99999999999993 60.0,59.99999999999993 60.0,49.99999999999993 50.0,49.99999999999993 50.0,59.99999999999993 60.0,59.99999999999993 60.0,69.99999999999993 50.0,69.99999999999993 50.0,79.99999999999993 60.0,79.99999999999993 60.0,89.99999999999993 70.0,89.99999999999993 70.0,79.99999999999993 60.0,79.99999999999993" stroke="greenyellow" stroke-width="5" transform="rotate(-90)" /><polyline class="hole" fill-opacity="0" points="60.0,79.99999999999993 60.0,69.99999999999993 70.0,69.99999999999993 70.0,59.99999999999993 80.0,59.99999999999993 80.0,69.99999999999993 90.0,69.99999999999993 90.0,59.99999999999993 100.0,59.99999999999993 100.0,69.99999999999993 90.0,69.99999999999993 90.0,79.99999999999993 100.0,79.99999999999993 100.0,89.99999999999993 110.0,89.99999999999993 110.0,79.99999999999993 120.0,79.99999999999993 120.0,89.99999999999993 110.0,89.99999999999993 110.0,99.99999999999993 100.0,99.99999999999993 100.0,89.99999999999993 90.0,89.99999999999993 90.0,99.99999999999993 100.0,99.99999999999993 100.0,109.99999999999993 90.0,109.99999999999993 90.0,119.99999999999993 100.0,119.99999999999993 100.0,129.99999999999994 110.0,129.99999999999994 110.0,119.99999999999994 120.0,119.99999999999994 120.0,129.99999999999994 110.0,129.99999999999994 110.0,139.99999999999994 100.0,139.99999999999994 100.0,129.99999999999994 90.0,129.99999999999994 90.0,139.99999999999994 80.0,139.99999999999994 80.0,129.99999999999994 90.0,129.99999999999994 90.0,119.99999999999994 80.0,119.99999999999994 80.0,109.99999999999994 70.0,109.99999999999994 70.0,119.99999999999994 80.0,119.99999999999994 80.0,129.99999999999994 70.0,129.99999999999994 70.0,139.99999999999994 60.0,139.99999999999994 60.0,129.99999999999994 50.0,129.99999999999994 50.0,139.99999999999994 60.0,139.99999999999994 60.0,149.99999999999994 50.0,149.99999999999994 50.0,159.99999999999994 60.0,159.99999999999994 60.0,169.99999999999994 70.0,169.99999999999994 70.0,159.99999999999994 60.0,159.99999999999994" stroke="green" stroke-width="5" transform="rotate(-90)" /><polyline class="hole" fill-opacity="0" points="60.0,159.99999999999994 60.0,149.99999999999994 70.0,149.99999999999994 70.0,139.99999999999994 80.0,139.99999999999994 80.0,149.99999999999994 90.0,149.99999999999994 90.0,139.99999999999994 100.0,139.99999999999994 100.0,149.99999999999994 90.0,149.99999999999994 90.0,159.99999999999994 100.0,159.99999999999994 100.0,169.99999999999994 110.0,169.99999999999994 110.0,159.99999999999994 120.0,159.99999999999994 120.0,169.99999999999994 110.0,169.99999999999994 110.0,179.99999999999994 100.0,179.99999999999994 100.0,169.99999999999994 90.0,169.99999999999994 90.0,179.99999999999994 100.0,179.99999999999994 100.0,189.99999999999994 90.0,189.99999999999994 90.0,199.99999999999994 100.0,199.99999999999994 100.0,209.99999999999994 110.0,209.99999999999994 110.0,199.99999999999994 100.0,199.99999999999994 100.0,189.99999999999994 110.0,189.99999999999994 110.0,179.99999999999994 120.0,179.99999999999994 120.0,189.99999999999994 130.0,189.99999999999994 130.0,179.99999999999994 140.0,179.99999999999994 140.0,189.99999999999994 130.0,189.99999999999994 130.0,199.99999999999994 140.0,199.99999999999994 140.0,209.99999999999994 150.0,209.99999999999994 150.0,199.99999999999994 140.0,199.99999999999994 140.0,189.99999999999994 150.0,189.99999999999994 150.0,179.99999999999994 160.0,179.99999999999994 160.0,189.99999999999994 170.0,189.99999999999994 170.0,179.99999999999994 160.0,179.99999999999994 160.0,169.99999999999994 170.0,169.99999999999994 170.0,159.99999999999994 160.0,159.99999999999994 160.0,149.99999999999994 150.0,149.99999999999994 150.0,159.99999999999994 140.0,159.99999999999994" stroke="green" stroke-width="5" transform="rotate(-90)" /><polyline class="hole" fill-opacity="0" points="140.0,159.99999999999994 140.0,149.99999999999994 150.0,149.99999999999994 150.0,139.99999999999994 160.0,139.99999999999994 160.0,149.99999999999994 170.0,149.99999999999994 170.0,139.99999999999994 180.0,139.99999999999994 180.0,149.99999999999994 170.0,149.99999999999994 170.0,159.99999999999994 180.0,159.99999999999994 180.0,169.99999999999994 190.0,169.99999999999994 190.0,159.99999999999994 200.0,159.99999999999994 200.0,169.99999999999994 190.0,169.99999999999994 190.0,179.99999999999994 180.0,179.99999999999994 180.0,169.99999999999994 170.0,169.99999999999994 170.0,179.99999999999994 180.0,179.99999999999994 180.0,189.99999999999994 170.0,189.99999999999994 170.0,199.99999999999994 180.0,199.99999999999994 180.0,209.99999999999994 190.0,209.99999999999994 190.0,199.99999999999994 200.0,199.99999999999994 200.0,209.99999999999994 190.0,209.99999999999994 190.0,219.99999999999994 180.0,219.99999999999994 180.0,209.99999999999994 170.0,209.99999999999994 170.0,219.99999999999994 160.0,219.99999999999994 160.0,209.99999999999994 170.0,209.99999999999994 170.0,199.99999999999994 160.0,199.99999999999994 160.0,189.99999999999994 150.0,189.99999999999994 150.0,199.99999999999994 160.0,199.99999999999994 160.0,209.99999999999994 150.0,209.99999999999994 150.0,219.99999999999994 140.0,219.99999999999994 140.0,209.99999999999994 130.0,209.99999999999994 130.0,219.99999999999994 140.0,219.99999999999994 140.0,229.99999999999994 130.0,229.99999999999994 130.0,239.99999999999994 140.0,239.99999999999994 140.0,249.99999999999994 150.0,249.99999999999994 150.0,239.99999999999994 160.0,239.99999999999994" stroke="chartreuse" stroke-width="5" transform="rotate(-90)" /><polyline class="hole" fill-opacity="0" points="160.0,239.99999999999994 160.0,249.99999999999994 150.0,249.99999999999994 150.0,259.99999999999994 140.0,259.99999999999994 140.0,249.99999999999994 130.0,249.99999999999994 130.0,259.99999999999994 120.0,259.99999999999994 120.0,249.99999999999994 130.0,249.99999999999994 130.0,239.99999999999994 120.0,239.99999999999994 120.0,229.99999999999994 110.0,229.99999999999994 110.0,239.99999999999994 100.0,239.99999999999994 100.0,229.99999999999994 110.0,229.99999999999994 110.0,219.99999999999994 120.0,219.99999999999994 120.0,229.99999999999994 130.0,229.99999999999994 130.0,219.99999999999994 120.0,219.99999999999994 120.0,209.99999999999994 130.0,209.99999999999994 130.0,199.99999999999994 120.0,199.99999999999994 120.0,189.99999999999994 110.0,189.99999999999994 110.0,199.99999999999994 120.0,199.99999999999994 120.0,209.99999999999994 110.0,209.99999999999994 110.0,219.99999999999994 100.0,219.99999999999994 100.0,209.99999999999994 90.0,209.99999999999994 90.0,219.99999999999994 80.0,219.99999999999994 80.0,209.99999999999994 90.0,209.99999999999994 90.0,199.99999999999994 80.0,199.99999999999994 80.0,189.99999999999994 70.0,189.99999999999994 70.0,199.99999999999994 80.0,199.99999999999994 80.0,209.99999999999994 70.0,209.99999999999994 70.0,219.99999999999994 60.0,219.99999999999994 60.0,209.99999999999994 50.0,209.99999999999994 50.0,219.99999999999994 60.0,219.99999999999994 60.0,229.99999999999994 50.0,229.99999999999994 50.0,239.99999999999994 60.0,239.99999999999994 60.0,249.99999999999994 70.0,249.99999999999994 70.0,239.99999999999994 80.0,239.99999999999994" stroke="chartreuse" stroke-width="5" transform="rotate(-90)" /><polyline class="hole" fill-opacity="0" points="80.0,239.99999999999994 80.0,249.99999999999994 70.0,249.99999999999994 70.0,259.99999999999994 60.0,259.99999999999994 60.0,249.99999999999994 50.0,249.99999999999994 50.0,259.99999999999994 40.0,259.99999999999994 40.0,249.99999999999994 50.0,249.99999999999994 50.0,239.99999999999994 40.0,239.99999999999994 40.0,229.99999999999994 30.0,229.99999999999994 30.0,239.99999999999994 20.0,239.99999999999994 20.0,229.99999999999994 30.0,229.99999999999994 30.0,219.99999999999994 40.0,219.99999999999994 40.0,229.99999999999994 50.0,229.99999999999994 50.0,219.99999999999994 40.0,219.99999999999994 40.0,209.99999999999994 50.0,209.99999999999994 50.0,199.99999999999994 40.0,199.99999999999994 40.0,189.99999999999994 30.0,189.99999999999994 30.0,199.99999999999994 20.0,199.99999999999994 20.0,189.99999999999994 30.0,189.99999999999994 30.0,179.99999999999994 40.0,179.99999999999994 40.0,189.99999999999994 50.0,189.99999999999994 50.0,179.99999999999994 60.0,179.99999999999994 60.0,189.99999999999994 50.0,189.99999999999994 50.0,199.99999999999994 60.0,199.99999999999994 60.0,209.99999999999994 70.0,209.99999999999994 70.0,199.99999999999994 60.0,199.99999999999994 60.0,189.99999999999994 70.0,189.99999999999994 70.0,179.99999999999994 80.0,179.99999999999994 80.0,189.99999999999994 90.0,189.99999999999994 90.0,179.99999999999994 80.0,179.99999999999994 80.0,169.99999999999994 90.0,169.99999999999994 90.0,159.99999999999994 80.0,159.99999999999994 80.0,149.99999999999994 70.0,149.99999999999994 70.0,159.99999999999994 80.0,159.99999999999994" stroke="yellow" stroke-width="5" transform="rotate(-90)" /><polyline class="hole" fill-opacity="0" points="80.0,159.99999999999994 80.0,169.99999999999994 70.0,169.99999999999994 70.0,179.99999999999994 60.0,179.99999999999994 60.0,169.99999999999994 50.0,169.99999999999994 50.0,179.99999999999994 40.0,179.99999999999994 40.0,169.99999999999994 50.0,169.99999999999994 50.0,159.99999999999994 40.0,159.99999999999994 40.0,149.99999999999994 30.0,149.99999999999994 30.0,159.99999999999994 20.0,159.99999999999994 20.0,149.99999999999994 30.0,149.99999999999994 30.0,139.99999999999994 40.0,139.99999999999994 40.0,149.99999999999994 50.0,149.99999999999994 50.0,139.99999999999994 40.0,139.99999999999994 40.0,129.99999999999994 50.0,129.99999999999994 50.0,119.99999999999994 40.0,119.99999999999994 40.0,109.99999999999994 30.0,109.99999999999994 30.0,119.99999999999994 40.0,119.99999999999994 40.0,129.99999999999994 30.0,129.99999999999994 30.0,139.99999999999994 20.0,139.99999999999994 20.0,129.99999999999994 10.0,129.99999999999994 10.0,139.99999999999994 0.0,139.99999999999994 1.2246467991473533e-15,129.99999999999994 10.000000000000002,129.99999999999994 10.000000000000004,119.99999999999994 3.552713678800501e-15,119.99999999999994 4.777360477947854e-15,109.99999999999994 -9.999999999999995,109.99999999999994 -9.999999999999995,119.99999999999994 5.329070518200751e-15,119.99999999999994 5.329070518200751e-15,129.99999999999994 -9.999999999999995,129.99999999999994 -9.999999999999995,139.99999999999994 -19.999999999999993,139.99999999999994 -19.999999999999993,129.99999999999994 -29.999999999999993,129.99999999999994 -29.999999999999993,139.99999999999994 -19.999999999999993,139.99999999999994 -19.999999999999993,149.99999999999994 -29.999999999999993,149.99999999999994 -29.999999999999993,159.99999999999994 -19.999999999999993,159.99999999999994 -19.999999999999993,169.99999999999994 -9.999999999999993,169.99999999999994 -9.999999999999991,159.99999999999994 -19.999999999999993,159.99999999999994" stroke="green" stroke-width="5" transform="rotate(-90)" /><polyline class="hole" fill-opacity="0" points="-19.999999999999993,159.99999999999994 -19.999999999999993,149.99999999999994 -9.999999999999993,149.99999999999994 -9.999999999999991,139.99999999999994 8.881784197001252e-15,139.99999999999994 8.881784197001252e-15,149.99999999999994 10.000000000000009,149.99999999999994 10.00000000000001,139.99999999999994 20.00000000000001,139.99999999999994 20.00000000000001,149.99999999999994 10.00000000000001,149.99999999999994 10.00000000000001,159.99999999999994 20.00000000000001,159.99999999999994 20.00000000000001,169.99999999999994 30.00000000000001,169.99999999999994 30.00000000000001,159.99999999999994 40.000000000000014,159.99999999999994 40.000000000000014,169.99999999999994 30.000000000000014,169.99999999999994 30.000000000000014,179.99999999999994 20.000000000000014,179.99999999999994 20.000000000000014,169.99999999999994 10.000000000000014,169.99999999999994 10.000000000000014,179.99999999999994 20.000000000000014,179.99999999999994 20.000000000000014,189.99999999999994 10.000000000000014,189.99999999999994 10.000000000000014,199.99999999999994 20.000000000000014,199.99999999999994 20.000000000000014,209.99999999999994 30.000000000000014,209.99999999999994 30.000000000000014,199.99999999999994 40.000000000000014,199.99999999999994 40.000000000000014,209.99999999999994 30.000000000000014,209.99999999999994 30.000000000000014,219.99999999999994 20.000000000000014,219.99999999999994 20.000000000000014,209.99999999999994 10.000000000000014,209.99999999999994 10.000000000000014,219.99999999999994 1.4210854715202004e-14,219.99999999999994 1.5435501514349358e-14,209.99999999999994 10.000000000000016,209.99999999999994 10.000000000000018,199.99999999999994 1.7763568394002505e-14,199.99999999999994 1.898821519314986e-14,189.99999999999994 -9.99999999999998,189.99999999999994 -9.99999999999998,199.99999999999994 1.9539925233402755e-14,199.99999999999994 1.9539925233402755e-14,209.99999999999994 -9.99999999999998,209.99999999999994 -9.99999999999998,219.99999999999994 -19.99999999999998,219.99999999999994 -19.99999999999998,209.99999999999994 -29.99999999999998,209.99999999999994 -29.99999999999998,219.99999999999994 -19.99999999999998,219.99999999999994 -19.99999999999998,229.99999999999994 -29.99999999999998,229.99999999999994 -29.99999999999998,239.99999999999994 -19.99999999999998,239.99999999999994 -19.99999999999998,249.99999999999994 -9.999999999999979,249.99999999999994 -9.999999999999977,239.99999999999994 2.3092638912203256e-14,239.99999999999994" stroke="greenyellow" stroke-width="5" transform="rotate(-90)" /><polyline class="hole" fill-opacity="0" points="2.3092638912203256e-14,239.99999999999994 2.3092638912203256e-14,249.99999999999994 -9.999999999999977,249.99999999999994 -9.999999999999977,259.99999999999994 -19.99999999999998,259.99999999999994 -19.99999999999998,249.99999999999994 -29.99999999999998,249.99999999999994 -29.99999999999998,259.99999999999994 -39.99999999999998,259.99999999999994 -39.99999999999998,249.99999999999994 -29.99999999999998,249.99999999999994 -29.99999999999998,239.99999999999994 -39.99999999999998,239.99999999999994 -39.99999999999998,229.99999999999994 -49.99999999999998,229.99999999999994 -49.99999999999998,239.99999999999994 -59.99999999999998,239.99999999999994 -59.99999999999998,229.99999999999994 -49.99999999999998,229.99999999999994 -49.99999999999998,219.99999999999994 -39.99999999999998,219.99999999999994 -39.99999999999998,229.99999999999994 -29.99999999999998,229.99999999999994 -29.99999999999998,219.99999999999994 -39.99999999999998,219.99999999999994 -39.99999999999998,209.99999999999994 -29.99999999999998,209.99999999999994 -29.99999999999998,199.99999999999994 -39.99999999999998,199.99999999999994 -39.99999999999998,189.99999999999994 -49.99999999999998,189.99999999999994 -49.99999999999998,199.99999999999994 -39.99999999999998,199.99999999999994 -39.99999999999998,209.99999999999994 -49.99999999999998,209.99999999999994 -49.99999999999998,219.99999999999994 -59.99999999999998,219.99999999999994 -59.99999999999998,209.99999999999994 -69.99999999999997,209.99999999999994 -69.99999999999997,219.99999999999994 -79.99999999999997,219.99999999999994 -79.99999999999997,209.99999999999994 -69.99999999999997,209.99999999999994 -69.99999999999997,199.99999999999994 -79.99999999999997,199.99999999999994 -79.99999999999997,189.99999999999994 -89.99999999999997,189.99999999999994 -89.99999999999997,199.99999999999994 -79.99999999999997,199.99999999999994 -79.99999999999997,209.99999999999994 -89.99999999999997,209.99999999999994 -89.99999999999997,219.99999999999994 -99.99999999999997,219.99999999999994 -99.99999999999997,209.99999999999994 -109.99999999999997,209.99999999999994 -109.99999999999997,219.99999999999994 -99.99999999999997,219.99999999999994 -99.99999999999997,229.99999999999994 -109.99999999999997,229.99999999999994 -109.99999999999997,239.99999999999994 -99.99999999999997,239.99999999999994 -99.99999999999997,249.99999999999994 -89.99999999999997,249.99999999999994 -89.99999999999997,239.99999999999994 -99.99999999999997,239.99999999999994" stroke="chartreuse" stroke-width="5" transform="rotate(-90)" /><polyline class="hole" fill-opacity="0" points="-99.99999999999997,239.99999999999994 -99.99999999999997,229.99999999999994 -89.99999999999997,229.99999999999994 -89.99999999999997,219.99999999999994 -79.99999999999997,219.99999999999994 -79.99999999999997,229.99999999999994 -69.99999999999997,229.99999999999994 -69.99999999999997,219.99999999999994 -59.99999999999997,219.99999999999994 -59.99999999999997,229.99999999999994 -69.99999999999997,229.99999999999994 -69.99999999999997,239.99999999999994 -59.99999999999997,239.99999999999994 -59.99999999999997,249.99999999999994 -49.99999999999997,249.99999999999994 -49.99999999999997,239.99999999999994 -39.99999999999997,239.99999999999994 -39.99999999999997,249.99999999999994 -49.99999999999997,249.99999999999994 -49.99999999999997,259.99999999999994 -59.99999999999997,259.99999999999994 -59.99999999999997,249.99999999999994 -69.99999999999997,249.99999999999994 -69.99999999999997,259.99999999999994 -59.99999999999997,259.99999999999994 -59.99999999999997,269.99999999999994 -69.99999999999997,269.99999999999994 -69.99999999999997,279.99999999999994 -59.99999999999997,279.99999999999994 -59.99999999999997,289.99999999999994 -49.99999999999997,289.99999999999994 -49.99999999999997,279.99999999999994 -39.99999999999997,279.99999999999994 -39.99999999999997,289.99999999999994 -49.99999999999997,289.99999999999994 -49.99999999999997,299.99999999999994 -59.99999999999997,299.99999999999994 -59.99999999999997,289.99999999999994 -69.99999999999997,289.99999999999994 -69.99999999999997,299.99999999999994 -79.99999999999997,299.99999999999994 -79.99999999999997,289.99999999999994 -69.99999999999997,289.99999999999994 -69.99999999999997,279.99999999999994 -79.99999999999997,279.99999999999994 -79.99999999999997,269.99999999999994 -89.99999999999997,269.99999999999994 -89.99999999999997,279.99999999999994 -79.99999999999997,279.99999999999994 -79.99999999999997,289.99999999999994 -89.99999999999997,289.99999999999994 -89.99999999999997,299.99999999999994 -99.99999999999997,299.99999999999994 -99.99999999999997,289.99999999999994 -109.99999999999997,289.99999999999994 -109.99999999999997,299.99999999999994 -99.99999999999997,299.99999999999994 -99.99999999999997,309.99999999999994 -109.99999999999997,309.99999999999994 -109.99999999999997,319.99999999999994 -99.99999999999997,319.99999999999994 -99.99999999999997,329.99999999999994 -89.99999999999997,329.99999999999994 -89.99999999999997,319.99999999999994 -99.99999999999997,319.99999999999994" stroke="yellow" stroke-width="5" transform="rotate(-90)" /><polyline class="hole" fill-opacity="0" points="-99.99999999999997,319.99999999999994 -99.99999999999997,309.99999999999994 -89.99999999999997,309.99999999999994 -89.99999999999997,299.99999999999994 -79.99999999999997,299.99999999999994 -79.99999999999997,309.99999999999994 -69.99999999999997,309.99999999999994 -69.99999999999997,299.99999999999994 -59.99999999999997,299.99999999999994 -59.99999999999997,309.99999999999994 -69.99999999999997,309.99999999999994 -69.99999999999997,319.99999999999994 -59.99999999999997,319.99999999999994 -59.99999999999997,329.99999999999994 -49.99999999999997,329.99999999999994 -49.99999999999997,319.99999999999994 -39.99999999999997,319.99999999999994 -39.99999999999997,329.99999999999994 -49.99999999999997,329.99999999999994 -49.99999999999997,339.99999999999994 -59.99999999999997,339.99999999999994 -59.99999999999997,329.99999999999994 -69.99999999999997,329.99999999999994 -69.99999999999997,339.99999999999994 -59.99999999999997,339.99999999999994 -59.99999999999997,349.99999999999994 -69.99999999999997,349.99999999999994 -69.99999999999997,359.99999999999994 -59.99999999999997,359.99999999999994 -59.99999999999997,369.99999999999994 -49.99999999999997,369.99999999999994 -49.99999999999997,359.99999999999994 -59.99999999999997,359.99999999999994 -59.99999999999997,349.99999999999994 -49.99999999999997,349.99999999999994 -49.99999999999997,339.99999999999994 -39.99999999999997,339.99999999999994 -39.99999999999997,349.99999999999994 -29.99999999999997,349.99999999999994 -29.99999999999997,339.99999999999994 -19.99999999999997,339.99999999999994 -19.99999999999997,349.99999999999994 -29.99999999999997,349.99999999999994 -29.99999999999997,359.99999999999994 -19.99999999999997,359.99999999999994 -19.99999999999997,369.99999999999994 -9.999999999999972,369.99999999999994 -9.99999999999997,359.99999999999994 -19.99999999999997,359.99999999999994 -19.99999999999997,349.99999999999994 -9.999999999999972,349.99999999999994 -9.99999999999997,339.99999999999994 3.019806626980426e-14,339.99999999999994 3.019806626980426e-14,349.99999999999994 10.00000000000003,349.99999999999994 10.000000000000032,339.99999999999994 3.197442310920451e-14,339.99999999999994 3.319906990835186e-14,329.99999999999994 10.000000000000034,329.99999999999994 10.000000000000036,319.99999999999994 3.552713678800501e-14,319.99999999999994 3.675178358715236e-14,309.99999999999994 -9.999999999999963,309.99999999999994 -9.999999999999963,319.99999999999994" stroke="lime" stroke-width="5" transform="rotate(-90)" /></svg>