<?xml version="1.0" encoding="utf-8" ?>
<svg baseProfile="full" height="261.0000000000001" version="1.1" viewBox="-40.50000000000017 -191.0255888325766 261.0000000000001 226.1666049839539" width="226.1666049839539" xmlns="http://www.w3.org/2000/svg" xmlns:ev="http://www.w3.org/2001/xml-events" xmlns:xlink="http://www.w3.org/1999/xlink"><defs /><polygon fill="gold" fill-opacity="1" fill-rule="evenodd" points="86.60254037844386,10.000000000000014 86.60254037844386,50.000000000000014 51.96152422706632,70.00000000000001 51.96152422706633,30.000000000000014" transform="rotate(-90)" /><polyline class="hole" fill-opacity="0" points="51.96152422706631,30.000000000000007 86.60254037844386,10.000000000000014 86.60254037844386,50.000000000000014 51.96152422706632,70.00000000000001 51.96152422706633,30.000000000000014" stroke="gold" stroke-width="1" transform="rotate(-90)" /><polygon fill="gold" fill-opacity="1" fill-rule="evenodd" points="138.5640646055102,40.00000000000003 138.5640646055102,80.00000000000003 103.92304845413265,100.00000000000003 103.92304845413265,60.00000000000003" transform="rotate(-90)" /><polyline class="hole" fill-opacity="0" points="103.92304845413264,60.00000000000002 138.5640646055102,40.00000000000003 138.5640646055102,80.00000000000003 103.92304845413265,100.00000000000003 103.92304845413265,60.00000000000003" stroke="gold" stroke-width="1" transform="rotate(-90)" /><polygon fill="teal" fill-opacity="1" fill-rule="evenodd" points="103.92304845413265,100.00000000000003 69.28203230275511,80.00000000000001 69.28203230275511,40.000000000000014 103.92304845413265,60.000000000000014" transform="rotate(-90)" /><polyline class="hole" fill-opacity="0" points="103.92304845413265,60.00000000000003 103.92304845413265,100.00000000000003 69.28203230275511,80.00000000000001 69.28203230275511,40.000000000000014 103.92304845413265,60.000000000000014" stroke="teal" stroke-width="1" transform="rotate(-90)" /><polygon fill="red" fill-opacity="1" fill-rule="evenodd" points="69.28203230275511,40.0 103.92304845413267,20.000000000000007 138.56406460551023,40.000000000000014 103.92304845413268,60.000000000000014" transform="rotate(-90)" /><polyline class="hole" fill-opacity="0" points="103.92304845413265,60.000000000000014 69.28203230275511,40.0 103.92304845413267,20.000000000000007 138.56406460551023,40.000000000000014 103.92304845413268,60.000000000000014" stroke="red" stroke-width="1" transform="rotate(-90)" /><polygon fill="gold" fill-opacity="1" fill-rule="evenodd" points="190.52558883257655,70.00000000000003 190.52558883257655,110.00000000000003 155.88457268119902,130.00000000000003 155.88457268119902,90.00000000000003" transform="rotate(-90)" /><polyline class="hole" fill-opacity="0" points="155.884572681199,90.00000000000003 190.52558883257655,70.00000000000003 190.52558883257655,110.00000000000003 155.88457268119902,130.00000000000003 155.88457268119902,90.00000000000003" stroke="gold" stroke-width="1" transform="rotate(-90)" /><polygon fill="teal" fill-opacity="1" fill-rule="evenodd" points="155.88457268119902,130.00000000000003 121.24355652982149,110.00000000000001 121.24355652982149,70.00000000000001 155.88457268119902,90.00000000000001" transform="rotate(-90)" /><polyline class="hole" fill-opacity="0" points="155.88457268119902,90.00000000000003 155.88457268119902,130.00000000000003 121.24355652982149,110.00000000000001 121.24355652982149,70.00000000000001 155.88457268119902,90.00000000000001" stroke="teal" stroke-width="1" transform="rotate(-90)" /><polygon fill="red" fill-opacity="1" fill-rule="evenodd" points="121.24355652982149,70.0 155.88457268119905,50.00000000000001 190.5255888325766,70.00000000000001 155.88457268119907,90.00000000000001" transform="rotate(-90)" /><polyline class="hole" fill-opacity="0" points="155.88457268119902,90.00000000000001 121.24355652982149,70.0 155.88457268119905,50.00000000000001 190.5255888325766,70.00000000000001 155.88457268119907,90.00000000000001" stroke="red" stroke-width="1" transform="rotate(-90)" /><polygon fill="gold" fill-opacity="1" fill-rule="evenodd" points="138.5640646055103,100.00000000000003 138.5640646055103,140.00000000000003 103.92304845413277,160.00000000000003 103.92304845413277,120.00000000000003" transform="rotate(-90)" /><polyline class="hole" fill-opacity="0" points="103.92304845413275,120.00000000000003 138.5640646055103,100.00000000000003 138.5640646055103,140.00000000000003 103.92304845413277,160.00000000000003 103.92304845413277,120.00000000000003" stroke="gold" stroke-width="1" transform="rotate(-90)" /><polygon fill="teal" fill-opacity="1" fill-rule="evenodd" points="103.92304845413277,160.00000000000003 69.28203230275523,140.0 69.28203230275523,100.0 103.92304845413277,120.0" transform="rotate(-90)" /><polyline class="hole" fill-opacity="0" points="103.92304845413277,120.00000000000003 103.92304845413277,160.00000000000003 69.28203230275523,140.0 69.28203230275523,100.0 103.92304845413277,120.0" stroke="teal" stroke-width="1" transform="rotate(-90)" /><polygon fill="red" fill-opacity="1" fill-rule="evenodd" points="69.28203230275523,99.99999999999999 103.92304845413278,80.0 138.56406460551034,100.0 103.9230484541328,120.0" transform="rotate(-90)" /><polyline class="hole" fill-opacity="0" points="103.92304845413277,120.0 69.28203230275523,99.99999999999999 103.92304845413278,80.0 138.56406460551034,100.0 103.9230484541328,120.0" stroke="red" stroke-width="1" transform="rotate(-90)" /><polygon fill="gold" fill-opacity="1" fill-rule="evenodd" points="86.60254037844403,130.0 86.60254037844403,170.0 51.96152422706649,190.0 51.9615242270665,150.0" transform="rotate(-90)" /><polyline class="hole" fill-opacity="0" points="51.961524227066484,150.0 86.60254037844403,130.0 86.60254037844403,170.0 51.96152422706649,190.0 51.9615242270665,150.0" stroke="gold" stroke-width="1" transform="rotate(-90)" /><polygon fill="teal" fill-opacity="1" fill-rule="evenodd" points="51.9615242270665,190.0 17.320508075688963,169.99999999999997 17.320508075688966,129.99999999999997 51.961524227066505,149.99999999999997" transform="rotate(-90)" /><polyline class="hole" fill-opacity="0" points="51.9615242270665,150.0 51.9615242270665,190.0 17.320508075688963,169.99999999999997 17.320508075688966,129.99999999999997 51.961524227066505,149.99999999999997" stroke="teal" stroke-width="1" transform="rotate(-90)" /><polygon fill="red" fill-opacity="1" fill-rule="evenodd" points="17.32050807568897,129.99999999999994 51.96152422706652,109.99999999999994 86.60254037844406,129.99999999999994 51.96152422706652,149.99999999999994" transform="rotate(-90)" /><polyline class="hole" fill-opacity="0" points="51.961524227066505,149.99999999999997 17.32050807568897,129.99999999999994 51.96152422706652,109.99999999999994 86.60254037844406,129.99999999999994 51.96152422706652,149.99999999999994" stroke="red" stroke-width="1" transform="rotate(-90)" /><polygon fill="gold" fill-opacity="1" fill-rule="evenodd" points="34.641016151377755,159.99999999999994 34.641016151377755,199.99999999999994 2.1316282072803006e-13,219.99999999999994 2.1806140792461946e-13,179.99999999999994" transform="rotate(-90)" /><polyline class="hole" fill-opacity="0" points="2.0605739337042905e-13,179.99999999999994 34.641016151377755,159.99999999999994 34.641016151377755,199.99999999999994 2.1316282072803006e-13,219.99999999999994 2.1806140792461946e-13,179.99999999999994" stroke="gold" stroke-width="1" transform="rotate(-90)" /><polygon fill="teal" fill-opacity="1" fill-rule="evenodd" points="2.1806140792461946e-13,219.99999999999994 -34.641016151377315,199.99999999999991 -34.64101615137731,159.99999999999991 2.3447910280083306e-13,179.99999999999991" transform="rotate(-90)" /><polyline class="hole" fill-opacity="0" points="2.1806140792461946e-13,179.99999999999994 2.1806140792461946e-13,219.99999999999994 -34.641016151377315,199.99999999999991 -34.64101615137731,159.99999999999991 2.3447910280083306e-13,179.99999999999991" stroke="teal" stroke-width="1" transform="rotate(-90)" /><polygon fill="red" fill-opacity="1" fill-rule="evenodd" points="-34.6410161513773,159.9999999999999 2.4868995751603507e-13,139.9999999999999 34.64101615137779,159.9999999999999 2.4868995751603507e-13,179.9999999999999" transform="rotate(-90)" /><polyline class="hole" fill-opacity="0" points="2.3447910280083306e-13,179.99999999999991 -34.6410161513773,159.9999999999999 2.4868995751603507e-13,139.9999999999999 34.64101615137779,159.9999999999999 2.4868995751603507e-13,179.9999999999999" stroke="red" stroke-width="1" transform="rotate(-90)" /><polygon fill="gold" fill-opacity="1" fill-rule="evenodd" points="34.641016151377805,99.99999999999989 34.641016151377805,139.9999999999999 2.6290081223123707e-13,159.9999999999999 2.6779939942782647e-13,119.99999999999989" transform="rotate(-90)" /><polyline class="hole" fill-opacity="0" points="2.5603783831091917e-13,119.99999999999989 34.641016151377805,99.99999999999989 34.641016151377805,139.9999999999999 2.6290081223123707e-13,159.9999999999999 2.6779939942782647e-13,119.99999999999989" stroke="gold" stroke-width="1" transform="rotate(-90)" /><polygon fill="teal" fill-opacity="1" fill-rule="evenodd" points="2.6779939942782647e-13,159.9999999999999 -34.641016151377265,139.99999999999986 -34.64101615137726,99.99999999999986 2.8421709430404007e-13,119.99999999999986" transform="rotate(-90)" /><polyline class="hole" fill-opacity="0" points="2.6779939942782647e-13,119.99999999999989 2.6779939942782647e-13,159.9999999999999 -34.641016151377265,139.99999999999986 -34.64101615137726,99.99999999999986 2.8421709430404007e-13,119.99999999999986" stroke="teal" stroke-width="1" transform="rotate(-90)" /><polygon fill="red" fill-opacity="1" fill-rule="evenodd" points="-34.64101615137725,99.99999999999984 2.984279490192421e-13,79.99999999999986 34.64101615137784,99.99999999999986 2.984279490192421e-13,119.99999999999986" transform="rotate(-90)" /><polyline class="hole" fill-opacity="0" points="2.8421709430404007e-13,119.99999999999986 -34.64101615137725,99.99999999999984 2.984279490192421e-13,79.99999999999986 34.64101615137784,99.99999999999986 2.984279490192421e-13,119.99999999999986" stroke="red" stroke-width="1" transform="rotate(-90)" /><polygon fill="gold" fill-opacity="1" fill-rule="evenodd" points="34.641016151377855,39.999999999999865 34.641016151377855,79.99999999999986 3.126388037344441e-13,99.99999999999986 3.175373909310335e-13,59.99999999999986" transform="rotate(-90)" /><polyline class="hole" fill-opacity="0" points="3.057758298141262e-13,59.99999999999986 34.641016151377855,39.999999999999865 34.641016151377855,79.99999999999986 3.126388037344441e-13,99.99999999999986 3.175373909310335e-13,59.99999999999986" stroke="gold" stroke-width="1" transform="rotate(-90)" /><polygon fill="teal" fill-opacity="1" fill-rule="evenodd" points="3.175373909310335e-13,99.99999999999986 -34.641016151377215,79.99999999999984 -34.64101615137721,39.999999999999844 3.339550858072471e-13,59.999999999999844" transform="rotate(-90)" /><polyline class="hole" fill-opacity="0" points="3.175373909310335e-13,59.99999999999986 3.175373909310335e-13,99.99999999999986 -34.641016151377215,79.99999999999984 -34.64101615137721,39.999999999999844 3.339550858072471e-13,59.999999999999844" stroke="teal" stroke-width="1" transform="rotate(-90)" /><polygon fill="red" fill-opacity="1" fill-rule="evenodd" points="-34.6410161513772,39.99999999999983 3.481659405224491e-13,19.999999999999837 34.64101615137789,39.999999999999844 3.481659405224491e-13,59.999999999999844" transform="rotate(-90)" /><polyline class="hole" fill-opacity="0" points="3.339550858072471e-13,59.999999999999844 -34.6410161513772,39.99999999999983 3.481659405224491e-13,19.999999999999837 34.64101615137789,39.999999999999844 3.481659405224491e-13,59.999999999999844" stroke="red" stroke-width="1" transform="rotate(-90)" /><polygon fill="gold" fill-opacity="1" fill-rule="evenodd" points="34.641016151377904,-20.00000000000015 34.641016151377904,19.99999999999985 3.623767952376511e-13,39.99999999999986 3.672753824342405e-13,-1.4210854715202004e-13" transform="rotate(-90)" /><polyline class="hole" fill-opacity="0" points="3.555138213173332e-13,-1.5631940186722204e-13 34.641016151377904,-20.00000000000015 34.641016151377904,19.99999999999985 3.623767952376511e-13,39.99999999999986 3.672753824342405e-13,-1.4210854715202004e-13" stroke="gold" stroke-width="1" transform="rotate(-90)" /><polygon fill="teal" fill-opacity="1" fill-rule="evenodd" points="3.672753824342405e-13,39.99999999999986 -34.641016151377165,19.99999999999984 -34.64101615137716,-20.00000000000016 3.836930773104541e-13,-1.5631940186722204e-13" transform="rotate(-90)" /><polyline class="hole" fill-opacity="0" points="3.672753824342405e-13,-1.4210854715202004e-13 3.672753824342405e-13,39.99999999999986 -34.641016151377165,19.99999999999984 -34.64101615137716,-20.00000000000016 3.836930773104541e-13,-1.5631940186722204e-13" stroke="teal" stroke-width="1" transform="rotate(-90)" /><polygon fill="red" fill-opacity="1" fill-rule="evenodd" points="-34.64101615137715,-20.000000000000174 3.979039320256561e-13,-40.00000000000017 34.64101615137794,-20.000000000000167 3.979039320256561e-13,-1.6342482922482304e-13" transform="rotate(-90)" /><polyline class="hole" fill-opacity="0" points="3.836930773104541e-13,-1.5631940186722204e-13 -34.64101615137715,-20.000000000000174 3.979039320256561e-13,-40.00000000000017 34.64101615137794,-20.000000000000167 3.979039320256561e-13,-1.6342482922482304e-13" stroke="red" stroke-width="1" transform="rotate(-90)" /><polygon fill="teal" fill-opacity="1" fill-rule="evenodd" points="51.96152422706631,70.0 17.320508075688778,49.999999999999986 17.32050807568878,9.999999999999986 51.96152422706632,29.99999999999999" transform="rotate(-90)" /><polyline class="hole" fill-opacity="0" points="51.96152422706631,30.000000000000007 51.96152422706631,70.0 17.320508075688778,49.999999999999986 17.32050807568878,9.999999999999986 51.96152422706632,29.99999999999999" stroke="teal" stroke-width="1" transform="rotate(-90)" /><polygon fill="red" fill-opacity="1" fill-rule="evenodd" points="17.320508075688785,9.999999999999972 51.961524227066334,-10.000000000000021 86.60254037844388,9.999999999999982 51.961524227066334,29.999999999999986" transform="rotate(-90)" /><polyline class="hole" fill-opacity="0" points="51.96152422706632,29.99999999999999 17.320508075688785,9.999999999999972 51.961524227066334,-10.000000000000021 86.60254037844388,9.999999999999982 51.961524227066334,29.999999999999986" stroke="red" stroke-width="1" transform="rotate(-90)" /></svg>