<?xml version="1.0" encoding="utf-8" ?>
<svg baseProfile="full" height="201.0000000000001" version="1.1" viewBox="-109.24886635259244 -200.50000000000006 201.0000000000001 201.00000000000006" width="201.00000000000006" xmlns="http://www.w3.org/2000/svg" xmlns:ev="http://www.w3.org/2001/xml-events" xmlns:xlink="http://www.w3.org/1999/xlink"><defs /><polygon fill="yellow" fill-opacity="1" fill-rule="evenodd" points="200.0,1.2246467991473532e-14 3.038449397558395,-34.72963553338605 190.97697355474006,33.67439313174771 17.771892797852388,-66.32560686825238 170.980781421648,62.2319150690555 42.42325948434015,-90.97697355474011 142.42325948434012,82.22810720214764 74.01923081920638,-105.71041695503405 108.74886635259244,91.25113364740756 108.74886635259247,-108.74886635259244 74.0192308192064,88.21268424984916 142.42325948434018,-99.7258399073325 42.42325948434009,73.47924084955517 170.98078142164798,-79.72964777424042 17.77189279785236,48.827874163067435 190.9769735547401,-51.17212583693252 3.038449397558452,17.23190282820127 200.00000000000006,-17.497732705184788 5.684341886080802e-14,-17.497732705184823 196.96155060244166,17.231902828201257 9.023026445259973,-51.17212583693245 182.2281072021477,48.82787416306758 29.01921857835211,-79.7296477742403 157.57674051565996,73.47924084955531 57.576740515659935,-99.72583990733241 125.98076918079367,88.21268424984927 91.25113364740758,-108.74886635259233 91.25113364740758,91.25113364740767 125.98076918079363,-105.71041695503393 57.57674051565991,82.22810720214775 157.57674051565988,-90.97697355474 29.019218578351968,62.23191506905556 182.22810720214758,-66.32560686825232 9.023026445259859,33.674393131747706 196.96155060244155,-34.72963553338603 0,0" transform="rotate(-90)" /><polyline class="hole" fill-opacity="0" points="0,0 200.0,1.2246467991473532e-14 3.038449397558395,-34.72963553338605 190.97697355474006,33.67439313174771 17.771892797852388,-66.32560686825238 170.980781421648,62.2319150690555 42.42325948434015,-90.97697355474011 142.42325948434012,82.22810720214764 74.01923081920638,-105.71041695503405 108.74886635259244,91.25113364740756 108.74886635259247,-108.74886635259244 74.0192308192064,88.21268424984916 142.42325948434018,-99.7258399073325 42.42325948434009,73.47924084955517 170.98078142164798,-79.72964777424042 17.77189279785236,48.827874163067435 190.9769735547401,-51.17212583693252 3.038449397558452,17.23190282820127 200.00000000000006,-17.497732705184788 5.684341886080802e-14,-17.497732705184823 196.96155060244166,17.231902828201257 9.023026445259973,-51.17212583693245 182.2281072021477,48.82787416306758 29.01921857835211,-79.7296477742403 157.57674051565996,73.47924084955531 57.576740515659935,-99.72583990733241 125.98076918079367,88.21268424984927 91.25113364740758,-108.74886635259233 91.25113364740758,91.25113364740767 125.98076918079363,-105.71041695503393 57.57674051565991,82.22810720214775 157.57674051565988,-90.97697355474 29.019218578351968,62.23191506905556 182.22810720214758,-66.32560686825232 9.023026445259859,33.674393131747706 196.96155060244155,-34.72963553338603 0,0" stroke="red" stroke-width="1" transform="rotate(-90)" /></svg>