<?xml version="1.0" encoding="utf-8" ?>
<svg baseProfile="full" height="800.9019387881883" version="1.1" viewBox="-400.45096939409416 -395.2856788640838 800.9019387881883 790.5713577281676" width="790.5713577281676" xmlns="http://www.w3.org/2000/svg" xmlns:ev="http://www.w3.org/2001/xml-events" xmlns:xlink="http://www.w3.org/1999/xlink"><defs /><polygon fill="darkviolet" fill-opacity="1" fill-rule="evenodd" points="80.0,4.898587196589413e-15 27.905546699920883,295.4423259036624 -272.0944533000791,295.4423259036623 -220.00000000000006,-5.684341886080802e-14 79.99999999999994,-3.847371687359772e-14 80.0,4.898587196589413e-15 0.0,0.0 64.7213595499958,47.022820183397855 -151.08058055159955,255.42033132109702 -393.78567886408376,79.08475563335506 -177.98373876248843,-129.31275550434415 64.72135954999581,47.02282018339778 64.7213595499958,47.022820183397855 0.0,0.0 24.721359549995793,76.08452130361228 -272.3590610724753,117.83645159163191 -365.06415938495945,-167.48050329691418 -67.98373876248837,-209.2324335849338 24.721359549995853,76.08452130361223 24.721359549995793,76.08452130361228 0.0,0.0 -24.72135954999581,76.08452130361228 -289.60563740767395,-64.75694753215494 -196.90053909518969,-350.07390242070096 67.98373876248837,-209.23243358493372 -24.72135954999591,76.08452130361232 -24.72135954999581,76.08452130361228 0.0,0.0 -64.72135954999581,47.02282018339783 -196.23270358671905,-222.61539370635225 46.472394725765184,-398.95096939409416 177.9837387624884,-129.31275550434407 -64.72135954999587,47.02282018339781 -64.72135954999581,47.02282018339783 0.0,0.0 -80.0,-1.4695761589768237e-14 -27.90554669992092,-295.4423259036624 272.09445330007907,-295.4423259036624 219.99999999999994,0.0 -80.00000000000006,-5.510910596163089e-14 -80.0,-1.4695761589768237e-14 0.0,0.0 -64.72135954999578,-47.02282018339786 151.08058055159955,-255.42033132109708 393.7856788640838,-79.08475563335514 177.98373876248846,129.31275550434404 -64.72135954999575,-47.022820183397926 -64.72135954999578,-47.02282018339786 0.0,0.0 -24.721359549995782,-76.08452130361229 272.3590610724753,-117.8364515916319 365.0641593849595,167.48050329691415 67.98373876248843,209.2324335849338 -24.721359549995753,-76.08452130361229 -24.721359549995782,-76.08452130361229 0.0,0.0 24.7213595499958,-76.08452130361228 289.60563740767384,64.75694753215497 196.90053909518957,350.073902420701 -67.98373876248854,209.2324335849338 24.72135954999571,-76.08452130361223 24.7213595499958,-76.08452130361228 0.0,0.0 64.7213595499958,-47.02282018339784 196.23270358671903,222.61539370635225 -46.47239472576524,398.95096939409416 -177.98373876248849,129.31275550434407 64.72135954999575,-47.02282018339784 64.7213595499958,-47.02282018339784 0.0,0.0" transform="rotate(-90)" /><polyline class="hole" fill-opacity="0" points="80.0,4.898587196589413e-15 27.905546699920883,295.4423259036624 -272.0944533000791,295.4423259036623 -220.00000000000006,-5.684341886080802e-14 79.99999999999994,-3.847371687359772e-14 80.0,4.898587196589413e-15" stroke="palegreen" stroke-width="3" transform="rotate(-90)" /><polyline class="hole" fill-opacity="0" points="64.7213595499958,47.022820183397855 -151.08058055159955,255.42033132109702 -393.78567886408376,79.08475563335506 -177.98373876248843,-129.31275550434415 64.72135954999581,47.02282018339778 64.7213595499958,47.022820183397855" stroke="palegreen" stroke-width="3" transform="rotate(-90)" /><polyline class="hole" fill-opacity="0" points="24.721359549995793,76.08452130361228 -272.3590610724753,117.83645159163191 -365.06415938495945,-167.48050329691418 -67.98373876248837,-209.2324335849338 24.721359549995853,76.08452130361223 24.721359549995793,76.08452130361228" stroke="palegreen" stroke-width="3" transform="rotate(-90)" /><polyline class="hole" fill-opacity="0" points="-24.72135954999581,76.08452130361228 -289.60563740767395,-64.75694753215494 -196.90053909518969,-350.07390242070096 67.98373876248837,-209.23243358493372 -24.72135954999591,76.08452130361232 -24.72135954999581,76.08452130361228" stroke="palegreen" stroke-width="3" transform="rotate(-90)" /><polyline class="hole" fill-opacity="0" points="-64.72135954999581,47.02282018339783 -196.23270358671905,-222.61539370635225 46.472394725765184,-398.95096939409416 177.9837387624884,-129.31275550434407 -64.72135954999587,47.02282018339781 -64.72135954999581,47.02282018339783" stroke="palegreen" stroke-width="3" transform="rotate(-90)" /><polyline class="hole" fill-opacity="0" points="-80.0,-1.4695761589768237e-14 -27.90554669992092,-295.4423259036624 272.09445330007907,-295.4423259036624 219.99999999999994,0.0 -80.00000000000006,-5.510910596163089e-14 -80.0,-1.4695761589768237e-14" stroke="palegreen" stroke-width="3" transform="rotate(-90)" /><polyline class="hole" fill-opacity="0" points="-64.72135954999578,-47.02282018339786 151.08058055159955,-255.42033132109708 393.7856788640838,-79.08475563335514 177.98373876248846,129.31275550434404 -64.72135954999575,-47.022820183397926 -64.72135954999578,-47.02282018339786" stroke="palegreen" stroke-width="3" transform="rotate(-90)" /><polyline class="hole" fill-opacity="0" points="-24.721359549995782,-76.08452130361229 272.3590610724753,-117.8364515916319 365.0641593849595,167.48050329691415 67.98373876248843,209.2324335849338 -24.721359549995753,-76.08452130361229 -24.721359549995782,-76.08452130361229" stroke="palegreen" stroke-width="3" transform="rotate(-90)" /><polyline class="hole" fill-opacity="0" points="24.7213595499958,-76.08452130361228 289.60563740767384,64.75694753215497 196.90053909518957,350.073902420701 -67.98373876248854,209.2324335849338 24.72135954999571,-76.08452130361223 24.7213595499958,-76.08452130361228" stroke="palegreen" stroke-width="3" transform="rotate(-90)" /><polyline class="hole" fill-opacity="0" points="64.7213595499958,-47.02282018339784 196.23270358671903,222.61539370635225 -46.47239472576524,398.95096939409416 -177.98373876248849,129.31275550434407 64.72135954999575,-47.02282018339784 64.7213595499958,-47.02282018339784" stroke="palegreen" stroke-width="3" transform="rotate(-90)" /></svg>