<?xml version="1.0" encoding="utf-8" ?>
<svg baseProfile="full" height="706.202074754139" version="1.1" viewBox="-343.10103737706953 -364.87919814702525 706.202074754139 749.7583962940505" width="749.7583962940505" xmlns="http://www.w3.org/2000/svg" xmlns:ev="http://www.w3.org/2001/xml-events" xmlns:xlink="http://www.w3.org/1999/xlink"><defs><mask id="018255e0258b47218db4f5b03a8080e3"><polygon fill="white" points="200.0,25.000000000000014 200.00000000000003,-150.0 200.00000000000003,-70.0 265.0,-70.0 265.0,-45.0 265.0,-70.0 200.0,-70.0 200.0,-150.0 275.0,-150.0 275.0,-150.0 294.61468676239735,-142.98928654852207 312.6577969724329,-122.51886165807377 327.6836726248951,-90.22886570736294 338.48840390770465,-48.70645194164466 344.20628939293005,-1.278497443492057 344.37919814702525,48.254954374794465 338.99327629881077,95.92516251937953 328.48005704542805,137.91267362484604 313.68188515988317,170.8533458751806 295.78442627297926,192.10789225271293 276.2216684506098,199.97334665236846 96.2216684506098,199.97334665236843 96.22166845060978,199.97334665236843 65.65213795429922,195.1862859265823 38.009371434880855,181.2834227570712 15.939920931498335,159.59583414893 1.5567424390401783,132.19991617541953 -3.7631010650293177,101.71858729609677 -3.7631010650292955,-78.28141270390323 -3.7631010650292893,-78.28141270390324 -8.550161790815423,-108.8509432002138 -22.453024960326502,-136.4937097196322 -44.1406135684677,-158.56316022301468 -71.53653154197818,-172.94633871547288 -102.01786042130092,-178.26618221954237 -222.01786042130092,-178.2661822195424 -222.01786042130092,-248.2661822195424 -222.01786042130092,-248.2661822195424 -214.40622867398204,-269.28191803639675 -192.181195935781,-288.6138218328633 -157.12348604643785,-304.7129743176443 -112.04200824365796,-316.2894721206545 -60.54880050280658,-322.4157779976817 -6.769624242952641,-322.6010373770695 44.98660174259686,-316.83040682541105 90.57304237138904,-305.56624333964385 126.33720081460942,-289.71105917656007 149.41356545307312,-270.535210369163 157.9532016584134,-249.5751127023386 157.9532016584134,25.4248872976614 199.9532016584134,25.424887297661403" /><polygon fill="black" points="265.0,-45.0 265.0,-70.0" /><circle cx="265.0" cy="-70.0" fill="black" r="25" stroke="#000080" stroke-width="1" /></mask><mask id="305d138857124151895c9402be795088"><polygon fill="white" points="220.0,5.000000000000014 220.00000000000003,-170.0 220.00000000000003,-90.0 285.0,-90.0 285.0,-65.0 285.0,-90.0 220.0,-90.0 220.0,-170.0 295.0,-170.0 295.0,-170.0 314.61468676239735,-162.98928654852207 332.6577969724329,-142.51886165807377 347.6836726248951,-110.22886570736294 358.48840390770465,-68.70645194164466 364.20628939293005,-21.278497443492057 364.37919814702525,28.254954374794462 358.99327629881077,75.92516251937953 348.48005704542805,117.91267362484602 333.68188515988317,150.8533458751806 315.78442627297926,172.10789225271293 296.2216684506098,179.97334665236846 116.2216684506098,179.97334665236843 116.22166845060978,179.97334665236843 85.65213795429922,175.1862859265823 58.009371434880855,161.2834227570712 35.939920931498335,139.59583414893 21.55674243904018,112.19991617541953 16.236898934970682,81.71858729609677 16.236898934970704,-98.28141270390323 16.236898934970696,-98.28141270390324 11.449838209184563,-128.8509432002138 -2.453024960326516,-156.4937097196322 -24.140613568467714,-178.56316022301468 -51.536531541978185,-192.94633871547288 -82.01786042130094,-198.26618221954237 -202.01786042130095,-198.2661822195424 -202.01786042130095,-268.26618221954243 -202.01786042130095,-268.26618221954243 -194.40622867398207,-289.2819180363968 -172.18119593578103,-308.6138218328634 -137.12348604643785,-324.71297431764435 -92.04200824365799,-336.2894721206545 -40.54880050280661,-342.41577799768174 13.23037575704733,-342.60103737706953 64.98660174259683,-336.8304068254111 110.57304237138901,-325.5662433396439 146.3372008146094,-309.7110591765601 169.4135654530731,-290.53521036916305 177.95320165841338,-269.5751127023387 177.95320165841338,5.424887297661314 219.95320165841338,5.424887297661317" /><polygon fill="black" points="285.0,-65.0 285.0,-90.0" /><circle cx="285.0" cy="-90.0" fill="black" r="25" stroke="#0000ff" stroke-width="1" /></mask><mask id="bd8e7bb6abd04a64821afdf25bd5cfbd"><polygon fill="white" points="-240.0,14.999999999999961 -240.0,189.99999999999997 -240.0,109.99999999999997 -305.0,109.99999999999996 -305.0,84.99999999999996 -305.0,109.99999999999996 -240.0,109.99999999999997 -240.0,189.99999999999997 -315.0,189.99999999999997 -315.0,189.99999999999997 -334.61468676239735,182.98928654852205 -352.65779697243283,162.51886165807375 -367.68367262489505,130.2288657073629 -378.4884039077046,88.70645194164462 -384.20628939293,41.278497443492014 -384.37919814702525,-8.254954374794501 -378.9932762988107,-55.92516251937957 -368.480057045428,-97.91267362484606 -353.6818851598831,-130.85334587518062 -335.78442627297915,-152.10789225271296 -316.22166845060974,-159.9733466523685 -136.22166845060974,-159.9733466523685 -136.22166845060974,-159.9733466523685 -105.65213795429916,-155.18628592658234 -78.00937143488079,-141.28342275707126 -55.93992093149828,-119.59583414893007 -41.55674243904011,-92.19991617541959 -36.23689893497061,-61.718587296096835 -36.23689893497061,118.28141270390316 -36.23689893497061,118.28141270390316 -31.449838209184477,148.85094320021372 -17.546975039673384,176.4937097196321 4.140613568467806,198.56316022301462 31.536531541978285,212.9463387154728 62.01786042130104,218.2661822195423 182.01786042130104,218.2661822195423 182.01786042130104,288.2661822195423 182.01786042130104,288.2661822195423 174.40622867398216,309.28191803639663 152.18119593578112,328.61382183286327 117.12348604643795,344.71297431764424 72.04200824365809,356.2894721206544 20.548800502806703,362.41577799768163 -33.230375757047234,362.6010373770694 -84.98660174259673,356.830406825411 -130.5730423713889,345.5662433396438 -166.3372008146093,329.71105917656 -189.413565453073,310.53521036916294 -197.9532016584133,289.5751127023386 -197.95320165841326,14.575112702338572 -239.95320165841326,14.575112702338565" /><polygon fill="black" points="-305.0,84.99999999999996 -305.0,109.99999999999996" /><circle cx="-305.0" cy="109.99999999999996" fill="black" r="25" stroke="#808000" stroke-width="1" /></mask><mask id="bc015377447a435eadb5e8c15f58a1ae"><polygon fill="white" points="-220.0,-5.000000000000039 -220.0,169.99999999999997 -220.0,89.99999999999997 -285.0,89.99999999999996 -285.0,64.99999999999996 -285.0,89.99999999999996 -220.0,89.99999999999997 -220.0,169.99999999999997 -295.0,169.99999999999997 -295.0,169.99999999999997 -314.61468676239735,162.98928654852205 -332.65779697243283,142.51886165807375 -347.68367262489505,110.2288657073629 -358.4884039077046,68.70645194164462 -364.20628939293,21.278497443492018 -364.37919814702525,-28.2549543747945 -358.9932762988107,-75.92516251937957 -348.480057045428,-117.91267362484606 -333.6818851598831,-150.85334587518062 -315.78442627297915,-172.10789225271296 -296.22166845060974,-179.9733466523685 -116.22166845060974,-179.9733466523685 -116.22166845060973,-179.9733466523685 -85.65213795429916,-175.18628592658234 -58.00937143488079,-161.28342275707126 -35.93992093149828,-139.59583414893007 -21.556742439040107,-112.19991617541959 -16.23689893497061,-81.71858729609684 -16.23689893497061,98.28141270390316 -16.23689893497061,98.28141270390316 -11.449838209184477,128.85094320021372 2.4530249603266157,156.4937097196321 24.140613568467806,178.56316022301462 51.536531541978285,192.9463387154728 82.01786042130104,198.2661822195423 202.01786042130104,198.2661822195423 202.01786042130104,268.2661822195423 202.01786042130104,268.2661822195423 194.40622867398216,289.28191803639663 172.18119593578112,308.61382183286327 137.12348604643796,324.71297431764424 92.04200824365809,336.2894721206544 40.5488005028067,342.41577799768163 -13.230375757047234,342.6010373770694 -64.98660174259673,336.830406825411 -110.57304237138892,325.5662433396438 -146.3372008146093,309.71105917656 -169.413565453073,290.53521036916294 -177.9532016584133,269.5751127023386 -177.95320165841326,-5.424887297661428 -219.95320165841326,-5.424887297661436" /><polygon fill="black" points="-285.0,64.99999999999996 -285.0,89.99999999999996" /><circle cx="-285.0" cy="89.99999999999996" fill="black" r="25" stroke="#ffff00" stroke-width="1" /></mask></defs><polygon fill="#000080" fill-opacity="1" fill-rule="evenodd" mask="url(#018255e0258b47218db4f5b03a8080e3)" points="200.0,25.000000000000014 200.00000000000003,-150.0 200.00000000000003,-70.0 265.0,-70.0 265.0,-45.0 265.0,-70.0 200.0,-70.0 200.0,-150.0 275.0,-150.0 275.0,-150.0 294.61468676239735,-142.98928654852207 312.6577969724329,-122.51886165807377 327.6836726248951,-90.22886570736294 338.48840390770465,-48.70645194164466 344.20628939293005,-1.278497443492057 344.37919814702525,48.254954374794465 338.99327629881077,95.92516251937953 328.48005704542805,137.91267362484604 313.68188515988317,170.8533458751806 295.78442627297926,192.10789225271293 276.2216684506098,199.97334665236846 96.2216684506098,199.97334665236843 96.22166845060978,199.97334665236843 65.65213795429922,195.1862859265823 38.009371434880855,181.2834227570712 15.939920931498335,159.59583414893 1.5567424390401783,132.19991617541953 -3.7631010650293177,101.71858729609677 -3.7631010650292955,-78.28141270390323 -3.7631010650292893,-78.28141270390324 -8.550161790815423,-108.8509432002138 -22.453024960326502,-136.4937097196322 -44.1406135684677,-158.56316022301468 -71.53653154197818,-172.94633871547288 -102.01786042130092,-178.26618221954237 -222.01786042130092,-178.2661822195424 -222.01786042130092,-248.2661822195424 -222.01786042130092,-248.2661822195424 -214.40622867398204,-269.28191803639675 -192.181195935781,-288.6138218328633 -157.12348604643785,-304.7129743176443 -112.04200824365796,-316.2894721206545 -60.54880050280658,-322.4157779976817 -6.769624242952641,-322.6010373770695 44.98660174259686,-316.83040682541105 90.57304237138904,-305.56624333964385 126.33720081460942,-289.71105917656007 149.41356545307312,-270.535210369163 157.9532016584134,-249.5751127023386 157.9532016584134,25.4248872976614 199.9532016584134,25.424887297661403" transform="rotate(-90)" /><polyline class="hole" fill-opacity="0" points="200.0,25.000000000000014 200.00000000000003,-150.0" stroke="#000080" stroke-width="1" transform="rotate(-90)" /><circle class="hole" cx="265.0" cy="-70.0" fill-opacity="0" r="25" stroke="#000080" stroke-width="1" transform="rotate(-90)" /><polyline class="hole" fill-opacity="0" points="200.0,-150.0 275.0,-150.0" stroke="#000080" stroke-width="1" transform="rotate(-90)" /><polyline class="hole" fill-opacity="0" points="275.0,-150.0 294.61468676239735,-142.98928654852207 312.6577969724329,-122.51886165807377 327.6836726248951,-90.22886570736294 338.48840390770465,-48.70645194164466 344.20628939293005,-1.278497443492057 344.37919814702525,48.254954374794465 338.99327629881077,95.92516251937953 328.48005704542805,137.91267362484604 313.68188515988317,170.8533458751806 295.78442627297926,192.10789225271293 276.2216684506098,199.97334665236846 96.2216684506098,199.97334665236843" stroke="#000080" stroke-width="1" transform="rotate(-90)" /><polyline class="hole" fill-opacity="0" points="96.22166845060978,199.97334665236843 65.65213795429922,195.1862859265823 38.009371434880855,181.2834227570712 15.939920931498335,159.59583414893 1.5567424390401783,132.19991617541953 -3.7631010650293177,101.71858729609677 -3.7631010650292955,-78.28141270390323" stroke="#000080" stroke-width="1" transform="rotate(-90)" /><polyline class="hole" fill-opacity="0" points="-3.7631010650292893,-78.28141270390324 -8.550161790815423,-108.8509432002138 -22.453024960326502,-136.4937097196322 -44.1406135684677,-158.56316022301468 -71.53653154197818,-172.94633871547288 -102.01786042130092,-178.26618221954237 -222.01786042130092,-178.2661822195424 -222.01786042130092,-248.2661822195424" stroke="#000080" stroke-width="1" transform="rotate(-90)" /><polyline class="hole" fill-opacity="0" points="-222.01786042130092,-248.2661822195424 -214.40622867398204,-269.28191803639675 -192.181195935781,-288.6138218328633 -157.12348604643785,-304.7129743176443 -112.04200824365796,-316.2894721206545 -60.54880050280658,-322.4157779976817 -6.769624242952641,-322.6010373770695 44.98660174259686,-316.83040682541105 90.57304237138904,-305.56624333964385 126.33720081460942,-289.71105917656007 149.41356545307312,-270.535210369163 157.9532016584134,-249.5751127023386 157.9532016584134,25.4248872976614 199.9532016584134,25.424887297661403" stroke="#000080" stroke-width="1" transform="rotate(-90)" /><polygon fill="#0000ff" fill-opacity="1" fill-rule="evenodd" mask="url(#305d138857124151895c9402be795088)" points="220.0,5.000000000000014 220.00000000000003,-170.0 220.00000000000003,-90.0 285.0,-90.0 285.0,-65.0 285.0,-90.0 220.0,-90.0 220.0,-170.0 295.0,-170.0 295.0,-170.0 314.61468676239735,-162.98928654852207 332.6577969724329,-142.51886165807377 347.6836726248951,-110.22886570736294 358.48840390770465,-68.70645194164466 364.20628939293005,-21.278497443492057 364.37919814702525,28.254954374794462 358.99327629881077,75.92516251937953 348.48005704542805,117.91267362484602 333.68188515988317,150.8533458751806 315.78442627297926,172.10789225271293 296.2216684506098,179.97334665236846 116.2216684506098,179.97334665236843 116.22166845060978,179.97334665236843 85.65213795429922,175.1862859265823 58.009371434880855,161.2834227570712 35.939920931498335,139.59583414893 21.55674243904018,112.19991617541953 16.236898934970682,81.71858729609677 16.236898934970704,-98.28141270390323 16.236898934970696,-98.28141270390324 11.449838209184563,-128.8509432002138 -2.453024960326516,-156.4937097196322 -24.140613568467714,-178.56316022301468 -51.536531541978185,-192.94633871547288 -82.01786042130094,-198.26618221954237 -202.01786042130095,-198.2661822195424 -202.01786042130095,-268.26618221954243 -202.01786042130095,-268.26618221954243 -194.40622867398207,-289.2819180363968 -172.18119593578103,-308.6138218328634 -137.12348604643785,-324.71297431764435 -92.04200824365799,-336.2894721206545 -40.54880050280661,-342.41577799768174 13.23037575704733,-342.60103737706953 64.98660174259683,-336.8304068254111 110.57304237138901,-325.5662433396439 146.3372008146094,-309.7110591765601 169.4135654530731,-290.53521036916305 177.95320165841338,-269.5751127023387 177.95320165841338,5.424887297661314 219.95320165841338,5.424887297661317" transform="rotate(-90)" /><polyline class="hole" fill-opacity="0" points="220.0,5.000000000000014 220.00000000000003,-170.0" stroke="#0000ff" stroke-width="1" transform="rotate(-90)" /><circle class="hole" cx="285.0" cy="-90.0" fill-opacity="0" r="25" stroke="#0000ff" stroke-width="1" transform="rotate(-90)" /><polyline class="hole" fill-opacity="0" points="220.0,-170.0 295.0,-170.0" stroke="#0000ff" stroke-width="1" transform="rotate(-90)" /><polyline class="hole" fill-opacity="0" points="295.0,-170.0 314.61468676239735,-162.98928654852207 332.6577969724329,-142.51886165807377 347.6836726248951,-110.22886570736294 358.48840390770465,-68.70645194164466 364.20628939293005,-21.278497443492057 364.37919814702525,28.254954374794462 358.99327629881077,75.92516251937953 348.48005704542805,117.91267362484602 333.68188515988317,150.8533458751806 315.78442627297926,172.10789225271293 296.2216684506098,179.97334665236846 116.2216684506098,179.97334665236843" stroke="#0000ff" stroke-width="1" transform="rotate(-90)" /><polyline class="hole" fill-opacity="0" points="116.22166845060978,179.97334665236843 85.65213795429922,175.1862859265823 58.009371434880855,161.2834227570712 35.939920931498335,139.59583414893 21.55674243904018,112.19991617541953 16.236898934970682,81.71858729609677 16.236898934970704,-98.28141270390323" stroke="#0000ff" stroke-width="1" transform="rotate(-90)" /><polyline class="hole" fill-opacity="0" points="16.236898934970696,-98.28141270390324 11.449838209184563,-128.8509432002138 -2.453024960326516,-156.4937097196322 -24.140613568467714,-178.56316022301468 -51.536531541978185,-192.94633871547288 -82.01786042130094,-198.26618221954237 -202.01786042130095,-198.2661822195424 -202.01786042130095,-268.26618221954243" stroke="#0000ff" stroke-width="1" transform="rotate(-90)" /><polyline class="hole" fill-opacity="0" points="-202.01786042130095,-268.26618221954243 -194.40622867398207,-289.2819180363968 -172.18119593578103,-308.6138218328634 -137.12348604643785,-324.71297431764435 -92.04200824365799,-336.2894721206545 -40.54880050280661,-342.41577799768174 13.23037575704733,-342.60103737706953 64.98660174259683,-336.8304068254111 110.57304237138901,-325.5662433396439 146.3372008146094,-309.7110591765601 169.4135654530731,-290.53521036916305 177.95320165841338,-269.5751127023387 177.95320165841338,5.424887297661314 219.95320165841338,5.424887297661317" stroke="#0000ff" stroke-width="1" transform="rotate(-90)" /><polygon fill="#808000" fill-opacity="1" fill-rule="evenodd" mask="url(#bd8e7bb6abd04a64821afdf25bd5cfbd)" points="-240.0,14.999999999999961 -240.0,189.99999999999997 -240.0,109.99999999999997 -305.0,109.99999999999996 -305.0,84.99999999999996 -305.0,109.99999999999996 -240.0,109.99999999999997 -240.0,189.99999999999997 -315.0,189.99999999999997 -315.0,189.99999999999997 -334.61468676239735,182.98928654852205 -352.65779697243283,162.51886165807375 -367.68367262489505,130.2288657073629 -378.4884039077046,88.70645194164462 -384.20628939293,41.278497443492014 -384.37919814702525,-8.254954374794501 -378.9932762988107,-55.92516251937957 -368.480057045428,-97.91267362484606 -353.6818851598831,-130.85334587518062 -335.78442627297915,-152.10789225271296 -316.22166845060974,-159.9733466523685 -136.22166845060974,-159.9733466523685 -136.22166845060974,-159.9733466523685 -105.65213795429916,-155.18628592658234 -78.00937143488079,-141.28342275707126 -55.93992093149828,-119.59583414893007 -41.55674243904011,-92.19991617541959 -36.23689893497061,-61.718587296096835 -36.23689893497061,118.28141270390316 -36.23689893497061,118.28141270390316 -31.449838209184477,148.85094320021372 -17.546975039673384,176.4937097196321 4.140613568467806,198.56316022301462 31.536531541978285,212.9463387154728 62.01786042130104,218.2661822195423 182.01786042130104,218.2661822195423 182.01786042130104,288.2661822195423 182.01786042130104,288.2661822195423 174.40622867398216,309.28191803639663 152.18119593578112,328.61382183286327 117.12348604643795,344.71297431764424 72.04200824365809,356.2894721206544 20.548800502806703,362.41577799768163 -33.230375757047234,362.6010373770694 -84.98660174259673,356.830406825411 -130.5730423713889,345.5662433396438 -166.3372008146093,329.71105917656 -189.413565453073,310.53521036916294 -197.9532016584133,289.5751127023386 -197.95320165841326,14.575112702338572 -239.95320165841326,14.575112702338565" transform="rotate(-90)" /><polyline class="hole" fill-opacity="0" points="-240.0,14.999999999999961 -240.0,189.99999999999997" stroke="#808000" stroke-width="1" transform="rotate(-90)" /><circle class="hole" cx="-305.0" cy="109.99999999999996" fill-opacity="0" r="25" stroke="#808000" stroke-width="1" transform="rotate(-90)" /><polyline class="hole" fill-opacity="0" points="-240.0,189.99999999999997 -315.0,189.99999999999997" stroke="#808000" stroke-width="1" transform="rotate(-90)" /><polyline class="hole" fill-opacity="0" points="-315.0,189.99999999999997 -334.61468676239735,182.98928654852205 -352.65779697243283,162.51886165807375 -367.68367262489505,130.2288657073629 -378.4884039077046,88.70645194164462 -384.20628939293,41.278497443492014 -384.37919814702525,-8.254954374794501 -378.9932762988107,-55.92516251937957 -368.480057045428,-97.91267362484606 -353.6818851598831,-130.85334587518062 -335.78442627297915,-152.10789225271296 -316.22166845060974,-159.9733466523685 -136.22166845060974,-159.9733466523685" stroke="#808000" stroke-width="1" transform="rotate(-90)" /><polyline class="hole" fill-opacity="0" points="-136.22166845060974,-159.9733466523685 -105.65213795429916,-155.18628592658234 -78.00937143488079,-141.28342275707126 -55.93992093149828,-119.59583414893007 -41.55674243904011,-92.19991617541959 -36.23689893497061,-61.718587296096835 -36.23689893497061,118.28141270390316" stroke="#808000" stroke-width="1" transform="rotate(-90)" /><polyline class="hole" fill-opacity="0" points="-36.23689893497061,118.28141270390316 -31.449838209184477,148.85094320021372 -17.546975039673384,176.4937097196321 4.140613568467806,198.56316022301462 31.536531541978285,212.9463387154728 62.01786042130104,218.2661822195423 182.01786042130104,218.2661822195423 182.01786042130104,288.2661822195423" stroke="#808000" stroke-width="1" transform="rotate(-90)" /><polyline class="hole" fill-opacity="0" points="182.01786042130104,288.2661822195423 174.40622867398216,309.28191803639663 152.18119593578112,328.61382183286327 117.12348604643795,344.71297431764424 72.04200824365809,356.2894721206544 20.548800502806703,362.41577799768163 -33.230375757047234,362.6010373770694 -84.98660174259673,356.830406825411 -130.5730423713889,345.5662433396438 -166.3372008146093,329.71105917656 -189.413565453073,310.53521036916294 -197.9532016584133,289.5751127023386 -197.95320165841326,14.575112702338572 -239.95320165841326,14.575112702338565" stroke="#808000" stroke-width="1" transform="rotate(-90)" /><polygon fill="#ffff00" fill-opacity="1" fill-rule="evenodd" mask="url(#bc015377447a435eadb5e8c15f58a1ae)" points="-220.0,-5.000000000000039 -220.0,169.99999999999997 -220.0,89.99999999999997 -285.0,89.99999999999996 -285.0,64.99999999999996 -285.0,89.99999999999996 -220.0,89.99999999999997 -220.0,169.99999999999997 -295.0,169.99999999999997 -295.0,169.99999999999997 -314.61468676239735,162.98928654852205 -332.65779697243283,142.51886165807375 -347.68367262489505,110.2288657073629 -358.4884039077046,68.70645194164462 -364.20628939293,21.278497443492018 -364.37919814702525,-28.2549543747945 -358.9932762988107,-75.92516251937957 -348.480057045428,-117.91267362484606 -333.6818851598831,-150.85334587518062 -315.78442627297915,-172.10789225271296 -296.22166845060974,-179.9733466523685 -116.22166845060974,-179.9733466523685 -116.22166845060973,-179.9733466523685 -85.65213795429916,-175.18628592658234 -58.00937143488079,-161.28342275707126 -35.93992093149828,-139.59583414893007 -21.556742439040107,-112.19991617541959 -16.23689893497061,-81.71858729609684 -16.23689893497061,98.28141270390316 -16.23689893497061,98.28141270390316 -11.449838209184477,128.85094320021372 2.4530249603266157,156.4937097196321 24.140613568467806,178.56316022301462 51.536531541978285,192.9463387154728 82.01786042130104,198.2661822195423 202.01786042130104,198.2661822195423 202.01786042130104,268.2661822195423 202.01786042130104,268.2661822195423 194.40622867398216,289.28191803639663 172.18119593578112,308.61382183286327 137.12348604643796,324.71297431764424 92.04200824365809,336.2894721206544 40.5488005028067,342.41577799768163 -13.230375757047234,342.6010373770694 -64.98660174259673,336.830406825411 -110.57304237138892,325.5662433396438 -146.3372008146093,309.71105917656 -169.413565453073,290.53521036916294 -177.9532016584133,269.5751127023386 -177.95320165841326,-5.424887297661428 -219.95320165841326,-5.424887297661436" transform="rotate(-90)" /><polyline class="hole" fill-opacity="0" points="-220.0,-5.000000000000039 -220.0,169.99999999999997" stroke="#ffff00" stroke-width="1" transform="rotate(-90)" /><circle class="hole" cx="-285.0" cy="89.99999999999996" fill-opacity="0" r="25" stroke="#ffff00" stroke-width="1" transform="rotate(-90)" /><polyline class="hole" fill-opacity="0" points="-220.0,169.99999999999997 -295.0,169.99999999999997" stroke="#ffff00" stroke-width="1" transform="rotate(-90)" /><polyline class="hole" fill-opacity="0" points="-295.0,169.99999999999997 -314.61468676239735,162.98928654852205 -332.65779697243283,142.51886165807375 -347.68367262489505,110.2288657073629 -358.4884039077046,68.70645194164462 -364.20628939293,21.278497443492018 -364.37919814702525,-28.2549543747945 -358.9932762988107,-75.92516251937957 -348.480057045428,-117.91267362484606 -333.6818851598831,-150.85334587518062 -315.78442627297915,-172.10789225271296 -296.22166845060974,-179.9733466523685 -116.22166845060974,-179.9733466523685" stroke="#ffff00" stroke-width="1" transform="rotate(-90)" /><polyline class="hole" fill-opacity="0" points="-116.22166845060973,-179.9733466523685 -85.65213795429916,-175.18628592658234 -58.00937143488079,-161.28342275707126 -35.93992093149828,-139.59583414893007 -21.556742439040107,-112.19991617541959 -16.23689893497061,-81.71858729609684 -16.23689893497061,98.28141270390316" stroke="#ffff00" stroke-width="1" transform="rotate(-90)" /><polyline class="hole" fill-opacity="0" points="-16.23689893497061,98.28141270390316 -11.449838209184477,128.85094320021372 2.4530249603266157,156.4937097196321 24.140613568467806,178.56316022301462 51.536531541978285,192.9463387154728 82.01786042130104,198.2661822195423 202.01786042130104,198.2661822195423 202.01786042130104,268.2661822195423" stroke="#ffff00" stroke-width="1" transform="rotate(-90)" /><polyline class="hole" fill-opacity="0" points="202.01786042130104,268.2661822195423 194.40622867398216,289.28191803639663 172.18119593578112,308.61382183286327 137.12348604643796,324.71297431764424 92.04200824365809,336.2894721206544 40.5488005028067,342.41577799768163 -13.230375757047234,342.6010373770694 -64.98660174259673,336.830406825411 -110.57304237138892,325.5662433396438 -146.3372008146093,309.71105917656 -169.413565453073,290.53521036916294 -177.9532016584133,269.5751127023386 -177.95320165841326,-5.424887297661428 -219.95320165841326,-5.424887297661436" stroke="#ffff00" stroke-width="1" transform="rotate(-90)" /></svg>