<?xml version="1.0" encoding="utf-8" ?>
<svg baseProfile="full" height="512.9101439581789" version="1.1" viewBox="-256.4550719790895 -256.4550719790895 512.9101439581789 512.9101439581789" width="512.9101439581789" xmlns="http://www.w3.org/2000/svg" xmlns:ev="http://www.w3.org/2001/xml-events" xmlns:xlink="http://www.w3.org/1999/xlink"><defs /><polygon fill="blue" fill-opacity="1" fill-rule="evenodd" points="80.0,4.898587196589413e-15 -3.8525491562421053,-150.0 255.9550719790895,2.842170943040401e-14 -3.8525491562421053,150.00000000000006 -3.8525491562420684,-149.99999999999994 80.0,4.898587196589413e-15 163.8525491562421,150.00000000000003 -95.95507197908938,-1.1368683772161603e-13 163.85254915624222,-150.00000000000006 163.85254915624222,149.99999999999994 80.0,4.898587196589413e-15 0.0,0.0 77.27406610312546,20.70552360820166 35.1015800383157,-145.88598703718935 247.23361439427993,66.24604731877491 -42.54413349244061,143.891760849531 35.1015800383157,-145.88598703718947 77.27406610312546,20.70552360820166 119.44655216793525,187.29703425359264 -92.68548218802898,-24.83500010237165 197.0922656986915,-102.4807136331279 119.4465521679353,187.29703425359259 77.27406610312546,20.70552360820166 0.0,0.0 69.28203230275508,40.00000000000001 71.66359456136604,-131.83008514578688 221.663594561366,127.97753598954472 -78.33640543863399,127.97753598954466 71.66359456136598,-131.83008514578694 69.28203230275508,40.00000000000001 66.90047004414406,211.83008514578682 -83.09952995585597,-47.977535989544776 216.90047004414401,-47.977535989544755 66.90047004414387,211.83008514578674 69.28203230275508,40.00000000000001 0.0,0.0 56.5685424949238,56.568542494923804 103.34185354474883,-108.79018081121544 180.98756707550507,180.98756707550504 -108.79018081121541,103.34185354474886 103.34185354474886,-108.79018081121538 56.5685424949238,56.568542494923804 9.795231445098764,221.92726580106307 -67.85048208565748,-67.8504820856574 221.92726580106302,9.795231445098821 9.795231445098722,221.92726580106302 56.5685424949238,56.568542494923804 0.0,0.0 39.99999999999999,69.2820323027551 127.97753598954475,-78.33640543863396 127.97753598954475,221.66359456136604 -131.83008514578674,71.6635945613659 127.97753598954486,-78.33640543863405 39.99999999999999,69.2820323027551 -47.977535989544734,216.90047004414419 -47.9775359895447,-83.09952995585581 211.8300851457869,66.90047004414421 -47.97753598954469,216.90047004414424 39.99999999999999,69.2820323027551 0.0,0.0 20.70552360820166,77.27406610312546 143.89176084953112,-42.54413349244053 66.24604731877491,247.23361439427995 -145.88598703718932,35.10158003831566 143.89176084953115,-42.544133492440594 20.70552360820166,77.27406610312546 -102.48071363312788,197.09226569869142 -24.835000102371566,-92.68548218802906 187.29703425359267,119.44655216793521 -102.48071363312786,197.09226569869128 20.70552360820166,77.27406610312546 0.0,0.0 0.0,80.0 150.0,-3.8525491562421195 -1.4210854715202004e-13,255.95507197908938 -150.00000000000017,-3.852549156242219 149.99999999999983,-3.8525491562422007 0.0,80.0 -150.0,163.8525491562421 -2.842170943040401e-14,-95.9550719790895 149.99999999999994,163.8525491562421 -150.00000000000006,163.85254915624205 0.0,80.0 0.0,0.0 -20.705523608201656,77.27406610312546 145.88598703718935,35.10158003831569 -66.24604731877494,247.2336143942799 -143.89176084953118,-42.54413349244058 145.8859870371893,35.101580038315646 -20.705523608201656,77.27406610312546 -187.29703425359267,119.44655216793518 24.835000102371595,-92.68548218802906 102.48071363312782,197.09226569869142 -187.29703425359264,119.44655216793524 -20.705523608201656,77.27406610312546 0.0,0.0 -40.000000000000036,69.28203230275507 131.83008514578682,71.6635945613661 -127.97753598954478,221.66359456136612 -127.97753598954473,-78.33640543863388 131.83008514578688,71.66359456136615 -40.000000000000036,69.28203230275507 -211.83008514578688,66.90047004414416 47.97753598954472,-83.09952995585579 47.97753598954472,216.9004700441442 -211.83008514578677,66.90047004414407 -40.000000000000036,69.28203230275507 0.0,0.0 -56.56854249492382,56.56854249492379 108.79018081121541,103.34185354474883 -180.98756707550513,180.9875670755049 -103.34185354474882,-108.79018081121558 108.79018081121542,103.34185354474869 -56.56854249492382,56.56854249492379 -221.92726580106307,9.795231445098771 67.8504820856574,-67.85048208565749 -9.795231445098807,221.927265801063 -221.92726580106304,9.795231445098693 -56.56854249492382,56.56854249492379 0.0,0.0 -69.28203230275508,40.00000000000001 78.336405438634,127.97753598954473 -221.66359456136598,127.97753598954468 -71.66359456136601,-131.83008514578694 78.33640543863396,127.97753598954466 -69.28203230275508,40.00000000000001 -216.90047004414413,-47.97753598954476 83.09952995585587,-47.97753598954474 -66.90047004414427,211.83008514578674 -216.9004700441443,-47.97753598954486 -69.28203230275508,40.00000000000001 0.0,0.0 -77.27406610312548,20.705523608201624 42.54413349244057,143.89176084953107 -247.2336143942799,66.24604731877488 -35.10158003831563,-145.88598703718935 42.544133492440594,143.89176084953112 -77.27406610312548,20.705523608201624 -197.0922656986915,-102.48071363312785 92.68548218802897,-24.835000102371623 -119.44655216793532,187.29703425359259 -197.09226569869156,-102.48071363312789 -77.27406610312548,20.705523608201624 0.0,0.0 -80.0,-1.4695761589768237e-14 3.852549156242091,150.0 -255.95507197908938,-1.4210854715202004e-13 3.852549156242219,-150.00000000000009 3.852549156242219,149.99999999999991 -80.0,-1.4695761589768237e-14 -163.8525491562421,-150.00000000000003 95.9550719790895,0.0 -163.8525491562421,150.00000000000003 -163.85254915624208,-149.99999999999997 -80.0,-1.4695761589768237e-14 0.0,0.0 -77.27406610312546,-20.705523608201652 -35.101580038315674,145.88598703718935 -247.23361439427993,-66.24604731877494 42.54413349244055,-143.89176084953118 -35.10158003831566,145.8859870371893 -77.27406610312546,-20.705523608201652 -119.44655216793524,-187.29703425359264 92.685482188029,24.835000102371623 -197.09226569869153,102.4807136331277 -119.44655216793522,-187.29703425359276 -77.27406610312546,-20.705523608201652 0.0,0.0 -69.28203230275507,-40.000000000000036 -71.6635945613661,131.83008514578682 -221.66359456136612,-127.97753598954478 78.33640543863388,-127.97753598954476 -71.66359456136627,131.8300851457867 -69.28203230275507,-40.000000000000036 -66.90047004414413,-211.83008514578688 83.09952995585584,47.97753598954472 -216.90047004414416,47.97753598954466 -66.90047004414419,-211.83008514578694 -69.28203230275507,-40.000000000000036 0.0,0.0 -56.5685424949238,-56.56854249492382 -103.34185354474883,108.79018081121544 -180.98756707550507,-180.98756707550504 108.79018081121541,-103.34185354474882 -103.34185354474889,108.7901808112154 -56.5685424949238,-56.56854249492382 -9.795231445098779,-221.92726580106307 67.85048208565745,67.8504820856574 -221.92726580106302,-9.795231445098779 -9.79523144509875,-221.92726580106302 -56.5685424949238,-56.56854249492382 0.0,0.0 -40.00000000000001,-69.28203230275508 -127.97753598954473,78.336405438634 -127.97753598954469,-221.66359456136598 131.8300851457869,-71.66359456136595 -127.97753598954469,78.33640543863407 -40.00000000000001,-69.28203230275508 47.97753598954475,-216.90047004414413 47.97753598954475,83.09952995585587 -211.83008514578674,-66.90047004414427 47.97753598954486,-216.9004700441442 -40.00000000000001,-69.28203230275508 0.0,0.0 -20.705523608201663,-77.27406610312546 -143.8917608495312,42.54413349244049 -66.2460473187749,-247.23361439427998 145.88598703718935,-35.10158003831572 -143.89176084953118,42.544133492440366 -20.705523608201663,-77.27406610312546 102.4807136331278,-197.09226569869145 24.835000102371595,92.68548218802903 -187.29703425359264,-119.44655216793527 102.48071363312783,-197.0922656986915 -20.705523608201663,-77.27406610312546 0.0,0.0 9.797174393178826e-15,-80.0 -150.0,3.8525491562421053 -2.842170943040401e-14,-255.9550719790895 149.99999999999994,3.8525491562421053 -150.00000000000006,3.85254915624205 9.797174393178826e-15,-80.0 150.0,-163.8525491562421 -1.4210854715202004e-13,95.95507197908938 -150.00000000000017,-163.85254915624222 149.99999999999983,-163.8525491562422 9.797174393178826e-15,-80.0 0.0,0.0 20.70552360820168,-77.27406610312545 -145.88598703718935,-35.10158003831573 66.24604731877491,-247.23361439427998 143.89176084953112,42.544133492440494 -145.88598703718935,-35.10158003831569 20.70552360820168,-77.27406610312545 187.29703425359267,-119.44655216793522 -24.835000102371623,92.68548218802898 -102.48071363312786,-197.0922656986915 187.2970342535926,-119.44655216793528 20.70552360820168,-77.27406610312545 0.0,0.0 39.99999999999999,-69.2820323027551 -131.83008514578685,-71.66359456136601 127.97753598954475,-221.66359456136595 127.97753598954475,78.33640543863405 -131.83008514578674,-71.6635945613661 39.99999999999999,-69.2820323027551 211.83008514578682,-66.90047004414407 -47.977535989544776,83.09952995585596 -47.97753598954474,-216.90047004414404 211.83008514578685,-66.90047004414401 39.99999999999999,-69.2820323027551 0.0,0.0 56.568542494923804,-56.5685424949238 -108.79018081121544,-103.34185354474883 180.98756707550504,-180.98756707550507 103.34185354474883,108.79018081121541 -108.79018081121541,-103.34185354474889 56.568542494923804,-56.5685424949238 221.92726580106304,-9.79523144509875 -67.85048208565749,67.85048208565733 9.795231445098821,-221.92726580106313 221.92726580106307,-9.795231445098864 56.568542494923804,-56.5685424949238 0.0,0.0 69.2820323027551,-39.999999999999986 -78.33640543863395,-127.97753598954476 221.66359456136604,-127.97753598954475 71.6635945613659,131.83008514578674 -78.33640543863413,-127.97753598954486 69.2820323027551,-39.999999999999986 216.90047004414419,47.97753598954475 -83.09952995585581,47.97753598954469 66.90047004414416,-211.8300851457869 216.90047004414413,47.97753598954469 69.2820323027551,-39.999999999999986 0.0,0.0 77.27406610312546,-20.705523608201666 -42.544133492440544,-143.89176084953112 247.23361439427993,-66.2460473187749 35.10158003831563,145.8859870371893 -42.54413349244061,-143.89176084953118 77.27406610312546,-20.705523608201666 197.0922656986915,102.48071363312776 -92.68548218802897,24.83500010237158 119.4465521679353,-187.29703425359264 197.0922656986915,102.48071363312783 77.27406610312546,-20.705523608201666 0.0,0.0" transform="rotate(-90)" /><polyline class="hole" fill-opacity="0" points="-3.8525491562421053,-150.0 255.9550719790895,2.842170943040401e-14" stroke="white" stroke-width="1" transform="rotate(-90)" /><polyline class="hole" fill-opacity="0" points="255.9550719790895,2.842170943040401e-14 -3.8525491562421053,150.00000000000006" stroke="white" stroke-width="1" transform="rotate(-90)" /><polyline class="hole" fill-opacity="0" points="-3.8525491562421053,150.00000000000006 -3.8525491562420684,-149.99999999999994" stroke="white" stroke-width="1" transform="rotate(-90)" /><polyline class="hole" fill-opacity="0" points="163.8525491562421,150.00000000000003 -95.95507197908938,-1.1368683772161603e-13" stroke="white" stroke-width="1" transform="rotate(-90)" /><polyline class="hole" fill-opacity="0" points="-95.95507197908938,-1.1368683772161603e-13 163.85254915624222,-150.00000000000006" stroke="white" stroke-width="1" transform="rotate(-90)" /><polyline class="hole" fill-opacity="0" points="163.85254915624222,-150.00000000000006 163.85254915624222,149.99999999999994" stroke="white" stroke-width="1" transform="rotate(-90)" /><polyline class="hole" fill-opacity="0" points="35.1015800383157,-145.88598703718935 247.23361439427993,66.24604731877491" stroke="white" stroke-width="1" transform="rotate(-90)" /><polyline class="hole" fill-opacity="0" points="247.23361439427993,66.24604731877491 -42.54413349244061,143.891760849531" stroke="white" stroke-width="1" transform="rotate(-90)" /><polyline class="hole" fill-opacity="0" points="-42.54413349244061,143.891760849531 35.1015800383157,-145.88598703718947" stroke="white" stroke-width="1" transform="rotate(-90)" /><polyline class="hole" fill-opacity="0" points="119.44655216793525,187.29703425359264 -92.68548218802898,-24.83500010237165" stroke="white" stroke-width="1" transform="rotate(-90)" /><polyline class="hole" fill-opacity="0" points="-92.68548218802898,-24.83500010237165 197.0922656986915,-102.4807136331279" stroke="white" stroke-width="1" transform="rotate(-90)" /><polyline class="hole" fill-opacity="0" points="197.0922656986915,-102.4807136331279 119.4465521679353,187.29703425359259" stroke="white" stroke-width="1" transform="rotate(-90)" /><polyline class="hole" fill-opacity="0" points="71.66359456136604,-131.83008514578688 221.663594561366,127.97753598954472" stroke="white" stroke-width="1" transform="rotate(-90)" /><polyline class="hole" fill-opacity="0" points="221.663594561366,127.97753598954472 -78.33640543863399,127.97753598954466" stroke="white" stroke-width="1" transform="rotate(-90)" /><polyline class="hole" fill-opacity="0" points="-78.33640543863399,127.97753598954466 71.66359456136598,-131.83008514578694" stroke="white" stroke-width="1" transform="rotate(-90)" /><polyline class="hole" fill-opacity="0" points="66.90047004414406,211.83008514578682 -83.09952995585597,-47.977535989544776" stroke="white" stroke-width="1" transform="rotate(-90)" /><polyline class="hole" fill-opacity="0" points="-83.09952995585597,-47.977535989544776 216.90047004414401,-47.977535989544755" stroke="white" stroke-width="1" transform="rotate(-90)" /><polyline class="hole" fill-opacity="0" points="216.90047004414401,-47.977535989544755 66.90047004414387,211.83008514578674" stroke="white" stroke-width="1" transform="rotate(-90)" /><polyline class="hole" fill-opacity="0" points="103.34185354474883,-108.79018081121544 180.98756707550507,180.98756707550504" stroke="white" stroke-width="1" transform="rotate(-90)" /><polyline class="hole" fill-opacity="0" points="180.98756707550507,180.98756707550504 -108.79018081121541,103.34185354474886" stroke="white" stroke-width="1" transform="rotate(-90)" /><polyline class="hole" fill-opacity="0" points="-108.79018081121541,103.34185354474886 103.34185354474886,-108.79018081121538" stroke="white" stroke-width="1" transform="rotate(-90)" /><polyline class="hole" fill-opacity="0" points="9.795231445098764,221.92726580106307 -67.85048208565748,-67.8504820856574" stroke="white" stroke-width="1" transform="rotate(-90)" /><polyline class="hole" fill-opacity="0" points="-67.85048208565748,-67.8504820856574 221.92726580106302,9.795231445098821" stroke="white" stroke-width="1" transform="rotate(-90)" /><polyline class="hole" fill-opacity="0" points="221.92726580106302,9.795231445098821 9.795231445098722,221.92726580106302" stroke="white" stroke-width="1" transform="rotate(-90)" /><polyline class="hole" fill-opacity="0" points="127.97753598954475,-78.33640543863396 127.97753598954475,221.66359456136604" stroke="white" stroke-width="1" transform="rotate(-90)" /><polyline class="hole" fill-opacity="0" points="127.97753598954475,221.66359456136604 -131.83008514578674,71.6635945613659" stroke="white" stroke-width="1" transform="rotate(-90)" /><polyline class="hole" fill-opacity="0" points="-131.83008514578674,71.6635945613659 127.97753598954486,-78.33640543863405" stroke="white" stroke-width="1" transform="rotate(-90)" /><polyline class="hole" fill-opacity="0" points="-47.977535989544734,216.90047004414419 -47.9775359895447,-83.09952995585581" stroke="white" stroke-width="1" transform="rotate(-90)" /><polyline class="hole" fill-opacity="0" points="-47.9775359895447,-83.09952995585581 211.8300851457869,66.90047004414421" stroke="white" stroke-width="1" transform="rotate(-90)" /><polyline class="hole" fill-opacity="0" points="211.8300851457869,66.90047004414421 -47.97753598954469,216.90047004414424" stroke="white" stroke-width="1" transform="rotate(-90)" /><polyline class="hole" fill-opacity="0" points="143.89176084953112,-42.54413349244053 66.24604731877491,247.23361439427995" stroke="white" stroke-width="1" transform="rotate(-90)" /><polyline class="hole" fill-opacity="0" points="66.24604731877491,247.23361439427995 -145.88598703718932,35.10158003831566" stroke="white" stroke-width="1" transform="rotate(-90)" /><polyline class="hole" fill-opacity="0" points="-145.88598703718932,35.10158003831566 143.89176084953115,-42.544133492440594" stroke="white" stroke-width="1" transform="rotate(-90)" /><polyline class="hole" fill-opacity="0" points="-102.48071363312788,197.09226569869142 -24.835000102371566,-92.68548218802906" stroke="white" stroke-width="1" transform="rotate(-90)" /><polyline class="hole" fill-opacity="0" points="-24.835000102371566,-92.68548218802906 187.29703425359267,119.44655216793521" stroke="white" stroke-width="1" transform="rotate(-90)" /><polyline class="hole" fill-opacity="0" points="187.29703425359267,119.44655216793521 -102.48071363312786,197.09226569869128" stroke="white" stroke-width="1" transform="rotate(-90)" /><polyline class="hole" fill-opacity="0" points="150.0,-3.8525491562421195 -1.4210854715202004e-13,255.95507197908938" stroke="white" stroke-width="1" transform="rotate(-90)" /><polyline class="hole" fill-opacity="0" points="-1.4210854715202004e-13,255.95507197908938 -150.00000000000017,-3.852549156242219" stroke="white" stroke-width="1" transform="rotate(-90)" /><polyline class="hole" fill-opacity="0" points="-150.00000000000017,-3.852549156242219 149.99999999999983,-3.8525491562422007" stroke="white" stroke-width="1" transform="rotate(-90)" /><polyline class="hole" fill-opacity="0" points="-150.0,163.8525491562421 -2.842170943040401e-14,-95.9550719790895" stroke="white" stroke-width="1" transform="rotate(-90)" /><polyline class="hole" fill-opacity="0" points="-2.842170943040401e-14,-95.9550719790895 149.99999999999994,163.8525491562421" stroke="white" stroke-width="1" transform="rotate(-90)" /><polyline class="hole" fill-opacity="0" points="149.99999999999994,163.8525491562421 -150.00000000000006,163.85254915624205" stroke="white" stroke-width="1" transform="rotate(-90)" /><polyline class="hole" fill-opacity="0" points="145.88598703718935,35.10158003831569 -66.24604731877494,247.2336143942799" stroke="white" stroke-width="1" transform="rotate(-90)" /><polyline class="hole" fill-opacity="0" points="-66.24604731877494,247.2336143942799 -143.89176084953118,-42.54413349244058" stroke="white" stroke-width="1" transform="rotate(-90)" /><polyline class="hole" fill-opacity="0" points="-143.89176084953118,-42.54413349244058 145.8859870371893,35.101580038315646" stroke="white" stroke-width="1" transform="rotate(-90)" /><polyline class="hole" fill-opacity="0" points="-187.29703425359267,119.44655216793518 24.835000102371595,-92.68548218802906" stroke="white" stroke-width="1" transform="rotate(-90)" /><polyline class="hole" fill-opacity="0" points="24.835000102371595,-92.68548218802906 102.48071363312782,197.09226569869142" stroke="white" stroke-width="1" transform="rotate(-90)" /><polyline class="hole" fill-opacity="0" points="102.48071363312782,197.09226569869142 -187.29703425359264,119.44655216793524" stroke="white" stroke-width="1" transform="rotate(-90)" /><polyline class="hole" fill-opacity="0" points="131.83008514578682,71.6635945613661 -127.97753598954478,221.66359456136612" stroke="white" stroke-width="1" transform="rotate(-90)" /><polyline class="hole" fill-opacity="0" points="-127.97753598954478,221.66359456136612 -127.97753598954473,-78.33640543863388" stroke="white" stroke-width="1" transform="rotate(-90)" /><polyline class="hole" fill-opacity="0" points="-127.97753598954473,-78.33640543863388 131.83008514578688,71.66359456136615" stroke="white" stroke-width="1" transform="rotate(-90)" /><polyline class="hole" fill-opacity="0" points="-211.83008514578688,66.90047004414416 47.97753598954472,-83.09952995585579" stroke="white" stroke-width="1" transform="rotate(-90)" /><polyline class="hole" fill-opacity="0" points="47.97753598954472,-83.09952995585579 47.97753598954472,216.9004700441442" stroke="white" stroke-width="1" transform="rotate(-90)" /><polyline class="hole" fill-opacity="0" points="47.97753598954472,216.9004700441442 -211.83008514578677,66.90047004414407" stroke="white" stroke-width="1" transform="rotate(-90)" /><polyline class="hole" fill-opacity="0" points="108.79018081121541,103.34185354474883 -180.98756707550513,180.9875670755049" stroke="white" stroke-width="1" transform="rotate(-90)" /><polyline class="hole" fill-opacity="0" points="-180.98756707550513,180.9875670755049 -103.34185354474882,-108.79018081121558" stroke="white" stroke-width="1" transform="rotate(-90)" /><polyline class="hole" fill-opacity="0" points="-103.34185354474882,-108.79018081121558 108.79018081121542,103.34185354474869" stroke="white" stroke-width="1" transform="rotate(-90)" /><polyline class="hole" fill-opacity="0" points="-221.92726580106307,9.795231445098771 67.8504820856574,-67.85048208565749" stroke="white" stroke-width="1" transform="rotate(-90)" /><polyline class="hole" fill-opacity="0" points="67.8504820856574,-67.85048208565749 -9.795231445098807,221.927265801063" stroke="white" stroke-width="1" transform="rotate(-90)" /><polyline class="hole" fill-opacity="0" points="-9.795231445098807,221.927265801063 -221.92726580106304,9.795231445098693" stroke="white" stroke-width="1" transform="rotate(-90)" /><polyline class="hole" fill-opacity="0" points="78.336405438634,127.97753598954473 -221.66359456136598,127.97753598954468" stroke="white" stroke-width="1" transform="rotate(-90)" /><polyline class="hole" fill-opacity="0" points="-221.66359456136598,127.97753598954468 -71.66359456136601,-131.83008514578694" stroke="white" stroke-width="1" transform="rotate(-90)" /><polyline class="hole" fill-opacity="0" points="-71.66359456136601,-131.83008514578694 78.33640543863396,127.97753598954466" stroke="white" stroke-width="1" transform="rotate(-90)" /><polyline class="hole" fill-opacity="0" points="-216.90047004414413,-47.97753598954476 83.09952995585587,-47.97753598954474" stroke="white" stroke-width="1" transform="rotate(-90)" /><polyline class="hole" fill-opacity="0" points="83.09952995585587,-47.97753598954474 -66.90047004414427,211.83008514578674" stroke="white" stroke-width="1" transform="rotate(-90)" /><polyline class="hole" fill-opacity="0" points="-66.90047004414427,211.83008514578674 -216.9004700441443,-47.97753598954486" stroke="white" stroke-width="1" transform="rotate(-90)" /><polyline class="hole" fill-opacity="0" points="42.54413349244057,143.89176084953107 -247.2336143942799,66.24604731877488" stroke="white" stroke-width="1" transform="rotate(-90)" /><polyline class="hole" fill-opacity="0" points="-247.2336143942799,66.24604731877488 -35.10158003831563,-145.88598703718935" stroke="white" stroke-width="1" transform="rotate(-90)" /><polyline class="hole" fill-opacity="0" points="-35.10158003831563,-145.88598703718935 42.544133492440594,143.89176084953112" stroke="white" stroke-width="1" transform="rotate(-90)" /><polyline class="hole" fill-opacity="0" points="-197.0922656986915,-102.48071363312785 92.68548218802897,-24.835000102371623" stroke="white" stroke-width="1" transform="rotate(-90)" /><polyline class="hole" fill-opacity="0" points="92.68548218802897,-24.835000102371623 -119.44655216793532,187.29703425359259" stroke="white" stroke-width="1" transform="rotate(-90)" /><polyline class="hole" fill-opacity="0" points="-119.44655216793532,187.29703425359259 -197.09226569869156,-102.48071363312789" stroke="white" stroke-width="1" transform="rotate(-90)" /><polyline class="hole" fill-opacity="0" points="3.852549156242091,150.0 -255.95507197908938,-1.4210854715202004e-13" stroke="white" stroke-width="1" transform="rotate(-90)" /><polyline class="hole" fill-opacity="0" points="-255.95507197908938,-1.4210854715202004e-13 3.852549156242219,-150.00000000000009" stroke="white" stroke-width="1" transform="rotate(-90)" /><polyline class="hole" fill-opacity="0" points="3.852549156242219,-150.00000000000009 3.852549156242219,149.99999999999991" stroke="white" stroke-width="1" transform="rotate(-90)" /><polyline class="hole" fill-opacity="0" points="-163.8525491562421,-150.00000000000003 95.9550719790895,0.0" stroke="white" stroke-width="1" transform="rotate(-90)" /><polyline class="hole" fill-opacity="0" points="95.9550719790895,0.0 -163.8525491562421,150.00000000000003" stroke="white" stroke-width="1" transform="rotate(-90)" /><polyline class="hole" fill-opacity="0" points="-163.8525491562421,150.00000000000003 -163.85254915624208,-149.99999999999997" stroke="white" stroke-width="1" transform="rotate(-90)" /><polyline class="hole" fill-opacity="0" points="-35.101580038315674,145.88598703718935 -247.23361439427993,-66.24604731877494" stroke="white" stroke-width="1" transform="rotate(-90)" /><polyline class="hole" fill-opacity="0" points="-247.23361439427993,-66.24604731877494 42.54413349244055,-143.89176084953118" stroke="white" stroke-width="1" transform="rotate(-90)" /><polyline class="hole" fill-opacity="0" points="42.54413349244055,-143.89176084953118 -35.10158003831566,145.8859870371893" stroke="white" stroke-width="1" transform="rotate(-90)" /><polyline class="hole" fill-opacity="0" points="-119.44655216793524,-187.29703425359264 92.685482188029,24.835000102371623" stroke="white" stroke-width="1" transform="rotate(-90)" /><polyline class="hole" fill-opacity="0" points="92.685482188029,24.835000102371623 -197.09226569869153,102.4807136331277" stroke="white" stroke-width="1" transform="rotate(-90)" /><polyline class="hole" fill-opacity="0" points="-197.09226569869153,102.4807136331277 -119.44655216793522,-187.29703425359276" stroke="white" stroke-width="1" transform="rotate(-90)" /><polyline class="hole" fill-opacity="0" points="-71.6635945613661,131.83008514578682 -221.66359456136612,-127.97753598954478" stroke="white" stroke-width="1" transform="rotate(-90)" /><polyline class="hole" fill-opacity="0" points="-221.66359456136612,-127.97753598954478 78.33640543863388,-127.97753598954476" stroke="white" stroke-width="1" transform="rotate(-90)" /><polyline class="hole" fill-opacity="0" points="78.33640543863388,-127.97753598954476 -71.66359456136627,131.8300851457867" stroke="white" stroke-width="1" transform="rotate(-90)" /><polyline class="hole" fill-opacity="0" points="-66.90047004414413,-211.83008514578688 83.09952995585584,47.97753598954472" stroke="white" stroke-width="1" transform="rotate(-90)" /><polyline class="hole" fill-opacity="0" points="83.09952995585584,47.97753598954472 -216.90047004414416,47.97753598954466" stroke="white" stroke-width="1" transform="rotate(-90)" /><polyline class="hole" fill-opacity="0" points="-216.90047004414416,47.97753598954466 -66.90047004414419,-211.83008514578694" stroke="white" stroke-width="1" transform="rotate(-90)" /><polyline class="hole" fill-opacity="0" points="-103.34185354474883,108.79018081121544 -180.98756707550507,-180.98756707550504" stroke="white" stroke-width="1" transform="rotate(-90)" /><polyline class="hole" fill-opacity="0" points="-180.98756707550507,-180.98756707550504 108.79018081121541,-103.34185354474882" stroke="white" stroke-width="1" transform="rotate(-90)" /><polyline class="hole" fill-opacity="0" points="108.79018081121541,-103.34185354474882 -103.34185354474889,108.7901808112154" stroke="white" stroke-width="1" transform="rotate(-90)" /><polyline class="hole" fill-opacity="0" points="-9.795231445098779,-221.92726580106307 67.85048208565745,67.8504820856574" stroke="white" stroke-width="1" transform="rotate(-90)" /><polyline class="hole" fill-opacity="0" points="67.85048208565745,67.8504820856574 -221.92726580106302,-9.795231445098779" stroke="white" stroke-width="1" transform="rotate(-90)" /><polyline class="hole" fill-opacity="0" points="-221.92726580106302,-9.795231445098779 -9.79523144509875,-221.92726580106302" stroke="white" stroke-width="1" transform="rotate(-90)" /><polyline class="hole" fill-opacity="0" points="-127.97753598954473,78.336405438634 -127.97753598954469,-221.66359456136598" stroke="white" stroke-width="1" transform="rotate(-90)" /><polyline class="hole" fill-opacity="0" points="-127.97753598954469,-221.66359456136598 131.8300851457869,-71.66359456136595" stroke="white" stroke-width="1" transform="rotate(-90)" /><polyline class="hole" fill-opacity="0" points="131.8300851457869,-71.66359456136595 -127.97753598954469,78.33640543863407" stroke="white" stroke-width="1" transform="rotate(-90)" /><polyline class="hole" fill-opacity="0" points="47.97753598954475,-216.90047004414413 47.97753598954475,83.09952995585587" stroke="white" stroke-width="1" transform="rotate(-90)" /><polyline class="hole" fill-opacity="0" points="47.97753598954475,83.09952995585587 -211.83008514578674,-66.90047004414427" stroke="white" stroke-width="1" transform="rotate(-90)" /><polyline class="hole" fill-opacity="0" points="-211.83008514578674,-66.90047004414427 47.97753598954486,-216.9004700441442" stroke="white" stroke-width="1" transform="rotate(-90)" /><polyline class="hole" fill-opacity="0" points="-143.8917608495312,42.54413349244049 -66.2460473187749,-247.23361439427998" stroke="white" stroke-width="1" transform="rotate(-90)" /><polyline class="hole" fill-opacity="0" points="-66.2460473187749,-247.23361439427998 145.88598703718935,-35.10158003831572" stroke="white" stroke-width="1" transform="rotate(-90)" /><polyline class="hole" fill-opacity="0" points="145.88598703718935,-35.10158003831572 -143.89176084953118,42.544133492440366" stroke="white" stroke-width="1" transform="rotate(-90)" /><polyline class="hole" fill-opacity="0" points="102.4807136331278,-197.09226569869145 24.835000102371595,92.68548218802903" stroke="white" stroke-width="1" transform="rotate(-90)" /><polyline class="hole" fill-opacity="0" points="24.835000102371595,92.68548218802903 -187.29703425359264,-119.44655216793527" stroke="white" stroke-width="1" transform="rotate(-90)" /><polyline class="hole" fill-opacity="0" points="-187.29703425359264,-119.44655216793527 102.48071363312783,-197.0922656986915" stroke="white" stroke-width="1" transform="rotate(-90)" /><polyline class="hole" fill-opacity="0" points="-150.0,3.8525491562421053 -2.842170943040401e-14,-255.9550719790895" stroke="white" stroke-width="1" transform="rotate(-90)" /><polyline class="hole" fill-opacity="0" points="-2.842170943040401e-14,-255.9550719790895 149.99999999999994,3.8525491562421053" stroke="white" stroke-width="1" transform="rotate(-90)" /><polyline class="hole" fill-opacity="0" points="149.99999999999994,3.8525491562421053 -150.00000000000006,3.85254915624205" stroke="white" stroke-width="1" transform="rotate(-90)" /><polyline class="hole" fill-opacity="0" points="150.0,-163.8525491562421 -1.4210854715202004e-13,95.95507197908938" stroke="white" stroke-width="1" transform="rotate(-90)" /><polyline class="hole" fill-opacity="0" points="-1.4210854715202004e-13,95.95507197908938 -150.00000000000017,-163.85254915624222" stroke="white" stroke-width="1" transform="rotate(-90)" /><polyline class="hole" fill-opacity="0" points="-150.00000000000017,-163.85254915624222 149.99999999999983,-163.8525491562422" stroke="white" stroke-width="1" transform="rotate(-90)" /><polyline class="hole" fill-opacity="0" points="-145.88598703718935,-35.10158003831573 66.24604731877491,-247.23361439427998" stroke="white" stroke-width="1" transform="rotate(-90)" /><polyline class="hole" fill-opacity="0" points="66.24604731877491,-247.23361439427998 143.89176084953112,42.544133492440494" stroke="white" stroke-width="1" transform="rotate(-90)" /><polyline class="hole" fill-opacity="0" points="143.89176084953112,42.544133492440494 -145.88598703718935,-35.10158003831569" stroke="white" stroke-width="1" transform="rotate(-90)" /><polyline class="hole" fill-opacity="0" points="187.29703425359267,-119.44655216793522 -24.835000102371623,92.68548218802898" stroke="white" stroke-width="1" transform="rotate(-90)" /><polyline class="hole" fill-opacity="0" points="-24.835000102371623,92.68548218802898 -102.48071363312786,-197.0922656986915" stroke="white" stroke-width="1" transform="rotate(-90)" /><polyline class="hole" fill-opacity="0" points="-102.48071363312786,-197.0922656986915 187.2970342535926,-119.44655216793528" stroke="white" stroke-width="1" transform="rotate(-90)" /><polyline class="hole" fill-opacity="0" points="-131.83008514578685,-71.66359456136601 127.97753598954475,-221.66359456136595" stroke="white" stroke-width="1" transform="rotate(-90)" /><polyline class="hole" fill-opacity="0" points="127.97753598954475,-221.66359456136595 127.97753598954475,78.33640543863405" stroke="white" stroke-width="1" transform="rotate(-90)" /><polyline class="hole" fill-opacity="0" points="127.97753598954475,78.33640543863405 -131.83008514578674,-71.6635945613661" stroke="white" stroke-width="1" transform="rotate(-90)" /><polyline class="hole" fill-opacity="0" points="211.83008514578682,-66.90047004414407 -47.977535989544776,83.09952995585596" stroke="white" stroke-width="1" transform="rotate(-90)" /><polyline class="hole" fill-opacity="0" points="-47.977535989544776,83.09952995585596 -47.97753598954474,-216.90047004414404" stroke="white" stroke-width="1" transform="rotate(-90)" /><polyline class="hole" fill-opacity="0" points="-47.97753598954474,-216.90047004414404 211.83008514578685,-66.90047004414401" stroke="white" stroke-width="1" transform="rotate(-90)" /><polyline class="hole" fill-opacity="0" points="-108.79018081121544,-103.34185354474883 180.98756707550504,-180.98756707550507" stroke="white" stroke-width="1" transform="rotate(-90)" /><polyline class="hole" fill-opacity="0" points="180.98756707550504,-180.98756707550507 103.34185354474883,108.79018081121541" stroke="white" stroke-width="1" transform="rotate(-90)" /><polyline class="hole" fill-opacity="0" points="103.34185354474883,108.79018081121541 -108.79018081121541,-103.34185354474889" stroke="white" stroke-width="1" transform="rotate(-90)" /><polyline class="hole" fill-opacity="0" points="221.92726580106304,-9.79523144509875 -67.85048208565749,67.85048208565733" stroke="white" stroke-width="1" transform="rotate(-90)" /><polyline class="hole" fill-opacity="0" points="-67.85048208565749,67.85048208565733 9.795231445098821,-221.92726580106313" stroke="white" stroke-width="1" transform="rotate(-90)" /><polyline class="hole" fill-opacity="0" points="9.795231445098821,-221.92726580106313 221.92726580106307,-9.795231445098864" stroke="white" stroke-width="1" transform="rotate(-90)" /><polyline class="hole" fill-opacity="0" points="-78.33640543863395,-127.97753598954476 221.66359456136604,-127.97753598954475" stroke="white" stroke-width="1" transform="rotate(-90)" /><polyline class="hole" fill-opacity="0" points="221.66359456136604,-127.97753598954475 71.6635945613659,131.83008514578674" stroke="white" stroke-width="1" transform="rotate(-90)" /><polyline class="hole" fill-opacity="0" points="71.6635945613659,131.83008514578674 -78.33640543863413,-127.97753598954486" stroke="white" stroke-width="1" transform="rotate(-90)" /><polyline class="hole" fill-opacity="0" points="216.90047004414419,47.97753598954475 -83.09952995585581,47.97753598954469" stroke="white" stroke-width="1" transform="rotate(-90)" /><polyline class="hole" fill-opacity="0" points="-83.09952995585581,47.97753598954469 66.90047004414416,-211.8300851457869" stroke="white" stroke-width="1" transform="rotate(-90)" /><polyline class="hole" fill-opacity="0" points="66.90047004414416,-211.8300851457869 216.90047004414413,47.97753598954469" stroke="white" stroke-width="1" transform="rotate(-90)" /><polyline class="hole" fill-opacity="0" points="-42.544133492440544,-143.89176084953112 247.23361439427993,-66.2460473187749" stroke="white" stroke-width="1" transform="rotate(-90)" /><polyline class="hole" fill-opacity="0" points="247.23361439427993,-66.2460473187749 35.10158003831563,145.8859870371893" stroke="white" stroke-width="1" transform="rotate(-90)" /><polyline class="hole" fill-opacity="0" points="35.10158003831563,145.8859870371893 -42.54413349244061,-143.89176084953118" stroke="white" stroke-width="1" transform="rotate(-90)" /><polyline class="hole" fill-opacity="0" points="197.0922656986915,102.48071363312776 -92.68548218802897,24.83500010237158" stroke="white" stroke-width="1" transform="rotate(-90)" /><polyline class="hole" fill-opacity="0" points="-92.68548218802897,24.83500010237158 119.4465521679353,-187.29703425359264" stroke="white" stroke-width="1" transform="rotate(-90)" /><polyline class="hole" fill-opacity="0" points="119.4465521679353,-187.29703425359264 197.0922656986915,102.48071363312783" stroke="white" stroke-width="1" transform="rotate(-90)" /></svg>