<?xml version="1.0" encoding="utf-8" ?>
<svg baseProfile="full" height="854.7540966287268" version="1.1" viewBox="-427.3770483143633 -427.3770483143633 854.7540966287268 854.7540966287268" width="854.7540966287268" xmlns="http://www.w3.org/2000/svg" xmlns:ev="http://www.w3.org/2001/xml-events" xmlns:xlink="http://www.w3.org/1999/xlink"><defs /><polygon fill="#00ff00" fill-opacity="1" fill-rule="evenodd" points="50.0,3.061616997868383e-15 50.00000000000001,-136.80805733026747 425.8770483143633,5.684341886080802e-14 50.0,136.80805733026764 50.000000000000036,-136.8080573302673 50.0,3.061616997868383e-15 0.0,0.0 43.30127018922193,25.000000000000007 111.70529885435568,-93.47925309040951 368.82034272897135,212.93852415718172 -25.102758475911855,143.4792530904096 111.70529885435559,-93.47925309040946 43.30127018922193,25.000000000000007 0.0,0.0 24.999999999999996,43.30127018922194 143.47925309040951,-25.102758475911784 212.93852415718163,368.8203427289714 -93.47925309040954,111.70529885435565 143.47925309040951,-25.10275847591177 24.999999999999996,43.30127018922194 0.0,0.0 0.0,50.0 136.80805733026747,50.0 2.842170943040401e-14,425.8770483143634 -136.80805733026745,50.0 136.8080573302675,50.000000000000014 0.0,50.0 0.0,0.0 -25.00000000000002,43.30127018922192 93.47925309040946,111.7052988543557 -212.93852415718177,368.8203427289714 -143.47925309040966,-25.1027584759118 93.47925309040937,111.7052988543557 -25.00000000000002,43.30127018922192 0.0,0.0 -43.30127018922193,25.000000000000007 25.10275847591182,143.47925309040951 -368.82034272897147,212.93852415718152 -111.7052988543557,-93.47925309040966 25.10275847591174,143.4792530904094 -43.30127018922193,25.000000000000007 0.0,0.0 -50.0,-9.184850993605149e-15 -50.00000000000003,136.80805733026747 -425.8770483143634,5.684341886080802e-14 -50.0,-136.80805733026742 -50.0,136.80805733026753 -50.0,-9.184850993605149e-15 0.0,0.0 -43.30127018922192,-25.00000000000002 -111.7052988543557,93.47925309040946 -368.8203427289714,-212.93852415718177 25.1027584759118,-143.4792530904096 -111.70529885435579,93.47925309040937 -43.30127018922192,-25.00000000000002 0.0,0.0 -25.000000000000007,-43.30127018922193 -143.47925309040951,25.10275847591182 -212.9385241571817,-368.8203427289714 93.47925309040954,-111.70529885435565 -143.4792530904095,25.102758475911855 -25.000000000000007,-43.30127018922193 0.0,0.0 6.123233995736766e-15,-50.0 -136.80805733026747,-50.000000000000014 8.526512829121202e-14,-425.8770483143633 136.80805733026756,-49.99999999999994 -136.8080573302674,-49.99999999999999 6.123233995736766e-15,-50.0 0.0,0.0 24.999999999999996,-43.30127018922194 -93.47925309040953,-111.70529885435566 212.9385241571817,-368.8203427289714 143.47925309040954,25.1027584759118 -93.47925309040943,-111.70529885435579 24.999999999999996,-43.30127018922194 0.0,0.0 43.30127018922194,-24.99999999999999 -25.10275847591177,-143.47925309040951 368.82034272897147,-212.93852415718163 111.70529885435565,93.47925309040949 -25.102758475911855,-143.47925309040954 43.30127018922194,-24.99999999999999 0.0,0.0" transform="rotate(-90)" /><polyline class="hole" fill-opacity="0" points="50.00000000000001,-136.80805733026747 425.8770483143633,5.684341886080802e-14 50.0,136.80805733026764 50.000000000000036,-136.8080573302673" stroke="white" stroke-width="3" transform="rotate(-90)" /><polyline class="hole" fill-opacity="0" points="111.70529885435568,-93.47925309040951 368.82034272897135,212.93852415718172 -25.102758475911855,143.4792530904096 111.70529885435559,-93.47925309040946" stroke="white" stroke-width="3" transform="rotate(-90)" /><polyline class="hole" fill-opacity="0" points="143.47925309040951,-25.102758475911784 212.93852415718163,368.8203427289714 -93.47925309040954,111.70529885435565 143.47925309040951,-25.10275847591177" stroke="white" stroke-width="3" transform="rotate(-90)" /><polyline class="hole" fill-opacity="0" points="136.80805733026747,50.0 2.842170943040401e-14,425.8770483143634 -136.80805733026745,50.0 136.8080573302675,50.000000000000014" stroke="white" stroke-width="3" transform="rotate(-90)" /><polyline class="hole" fill-opacity="0" points="93.47925309040946,111.7052988543557 -212.93852415718177,368.8203427289714 -143.47925309040966,-25.1027584759118 93.47925309040937,111.7052988543557" stroke="white" stroke-width="3" transform="rotate(-90)" /><polyline class="hole" fill-opacity="0" points="25.10275847591182,143.47925309040951 -368.82034272897147,212.93852415718152 -111.7052988543557,-93.47925309040966 25.10275847591174,143.4792530904094" stroke="white" stroke-width="3" transform="rotate(-90)" /><polyline class="hole" fill-opacity="0" points="-50.00000000000003,136.80805733026747 -425.8770483143634,5.684341886080802e-14 -50.0,-136.80805733026742 -50.0,136.80805733026753" stroke="white" stroke-width="3" transform="rotate(-90)" /><polyline class="hole" fill-opacity="0" points="-111.7052988543557,93.47925309040946 -368.8203427289714,-212.93852415718177 25.1027584759118,-143.4792530904096 -111.70529885435579,93.47925309040937" stroke="white" stroke-width="3" transform="rotate(-90)" /><polyline class="hole" fill-opacity="0" points="-143.47925309040951,25.10275847591182 -212.9385241571817,-368.8203427289714 93.47925309040954,-111.70529885435565 -143.4792530904095,25.102758475911855" stroke="white" stroke-width="3" transform="rotate(-90)" /><polyline class="hole" fill-opacity="0" points="-136.80805733026747,-50.000000000000014 8.526512829121202e-14,-425.8770483143633 136.80805733026756,-49.99999999999994 -136.8080573302674,-49.99999999999999" stroke="white" stroke-width="3" transform="rotate(-90)" /><polyline class="hole" fill-opacity="0" points="-93.47925309040953,-111.70529885435566 212.9385241571817,-368.8203427289714 143.47925309040954,25.1027584759118 -93.47925309040943,-111.70529885435579" stroke="white" stroke-width="3" transform="rotate(-90)" /><polyline class="hole" fill-opacity="0" points="-25.10275847591177,-143.47925309040951 368.82034272897147,-212.93852415718163 111.70529885435565,93.47925309040949 -25.102758475911855,-143.47925309040954" stroke="white" stroke-width="3" transform="rotate(-90)" /></svg>